<svg version="1.1" id="Layer_1" xmlns="http://www.w3.org/2000/svg" xmlns:xlink="http://www.w3.org/1999/xlink" x="0px" y="0px" viewBox="0 0 64 64" style="enable-background:new 0 0 64 64" xml:space="preserve"><path d="M32,26c-3.5,0-6.4,2.9-6.4,6.4s2.9,6.4,6.4,6.4c3.5,0,6.4-2.9,6.4-6.4S35.5,26,32,26z M32,37.6c-2.9,0-5.2-2.3-5.2-5.2c0-2.9,2.3-5.2,5.2-5.2c2.9,0,5.2,2.3,5.2,5.2C37.2,35.3,34.9,37.6,32,37.6z M62.6,32.4c0-1.6-0.6-3.1-1.6-4.6c0.4-0.6,0.7-1.3,0.7-2c0-1.9-1.6-3.5-3.5-3.5c-1,0-1.9,0.4-2.6,1.1c-0.2-0.1-0.5-0.3-0.7-0.4c1.7-5.2,1.4-9.6-1.2-12.2c-2.7-2.7-7.6-3-13.6-0.7c-2.6,1-5.3,2.4-8,4.2c-2.3-1.5-4.7-2.8-6.9-3.7c0-0.2,0.1-0.4,0.1-0.6c0-1.9-1.6-3.5-3.5-3.5c-1.5,0-2.7,0.9-3.3,2.2c-3.4-0.4-6.2,0.3-8,2.1c-2.5,2.5-2.9,6.8-1.2,12.1c-4.8,2.5-7.8,5.8-7.8,9.5c0,3.7,2.9,7,7.7,9.5C7.5,47,7.8,51.4,10.4,54c1.5,1.5,3.6,2.2,6.3,2.2c1.5,0,3.1-0.2,4.8-0.7c0.6,1.1,1.7,1.8,3.1,1.8c1.9,0,3.5-1.6,3.5-3.5c0-0.3-0.1-0.6-0.1-0.9c1.4-0.7,2.8-1.5,4.2-2.4c2.7,1.8,5.4,3.2,8,4.2c2.7,1,5.2,1.6,7.4,1.6c2.6,0,4.7-0.8,6.2-2.2c2.6-2.6,2.9-7,1.3-12.2C59.7,39.4,62.6,36.1,62.6,32.4z M58.1,23.4c1.3,0,2.3,1,2.3,2.3s-1,2.3-2.3,2.3c-1.3,0-2.3-1-2.3-2.3S56.9,23.4,58.1,23.4z M52.8,11.6c2.2,2.2,2.5,6,0.9,10.8c-4.4-2-9.9-3.4-16-3.9c-1.5-1.3-3.1-2.5-4.7-3.6C41.4,9.6,49.2,8,52.8,11.6z M41.2,41.6c-1.3,1.3-2.6,2.5-3.9,3.6c-1.7,0.1-3.5,0.2-5.3,0.2c-1.8,0-3.6-0.1-5.3-0.2c-1.3-1.1-2.6-2.3-3.9-3.6c-2.9-2.9-5.5-6-7.6-9.2c2.1-3.1,4.6-6.2,7.6-9.1c1.3-1.3,2.6-2.5,3.9-3.6c1.7-0.1,3.5-0.2,5.3-0.2c1.8,0,3.5,0.1,5.3,0.2c1.3,1.1,2.6,2.3,3.9,3.6c3,3,5.5,6.1,7.6,9.1C46.7,35.5,44.1,38.6,41.2,41.6z M49.5,33.5c1.7,2.7,3,5.3,3.9,7.8c-3.8,1.8-8.6,3.1-14.1,3.7c0.9-0.8,1.8-1.7,2.7-2.5C44.9,39.5,47.4,36.5,49.5,33.5z M35.7,46.4c-1.2,1-2.4,1.9-3.7,2.7c-1.2-0.8-2.4-1.7-3.7-2.7c1.2,0.1,2.4,0.1,3.7,0.1C33.2,46.5,34.5,46.5,35.7,46.4z M24.7,44.9c-5.5-0.6-10.3-1.9-14.1-3.7c0.9-2.5,2.2-5.1,3.9-7.8c2.1,3,4.6,6.1,7.5,8.9C22.9,43.3,23.8,44.1,24.7,44.9z M14.5,31.3c-1.6-2.5-2.9-4.9-3.8-7.3c-0.1-0.2-0.1-0.3-0.1-0.4c3.8-1.8,8.6-3,14.1-3.7c-0.9,0.8-1.8,1.7-2.7,2.5C19.1,25.3,16.6,28.3,14.5,31.3z M28.3,18.3c1.2-1,2.4-1.9,3.7-2.7c1.2,0.8,2.5,1.7,3.7,2.7c-1.2-0.1-2.4-0.1-3.7-0.1C30.7,18.2,29.5,18.3,28.3,18.3z M42,22.4c-0.9-0.9-1.8-1.7-2.7-2.5c5.3,0.6,10.2,1.9,14,3.7c-0.1,0.1-0.1,0.3-0.1,0.4c-0.9,2.4-2.2,4.8-3.8,7.3C47.4,28.3,44.9,25.3,42,22.4z M21.6,7.6c1.3,0,2.3,1,2.3,2.3c0,0.3-0.1,0.5-0.1,0.7c0,0,0,0,0,0c0,0,0,0,0,0c-0.3,0.9-1.2,1.6-2.2,1.6c-1.3,0-2.3-1-2.3-2.3S20.3,7.6,21.6,7.6z M11.2,11.6c1.5-1.5,3.9-2.1,6.9-1.8c0,0,0,0.1,0,0.1c0,1.9,1.6,3.5,3.5,3.5c1.3,0,2.4-0.7,3-1.8c2.1,0.9,4.2,2,6.3,3.3c-1.6,1.1-3.1,2.3-4.6,3.5c-6.2,0.5-11.8,1.9-16,3.9C8.7,17.5,9.1,13.8,11.2,11.6z M2.6,32.4c0-3.2,2.6-6.1,6.9-8.3c0,0.1,0.1,0.2,0.1,0.3c1,2.6,2.4,5.3,4.1,8c-1.9,2.9-3.3,5.7-4.3,8.4C5.2,38.5,2.6,35.6,2.6,32.4z M24.5,56.2c-1,0-1.8-0.6-2.2-1.5c0,0,0,0,0,0c0,0,0,0,0,0c-0.1-0.2-0.1-0.5-0.1-0.8c0-1.3,1-2.3,2.3-2.3c0.9,0,1.7,0.6,2.1,1.4c0,0,0,0,0,0c0,0,0,0,0,0c0.1,0.3,0.2,0.6,0.2,0.9C26.8,55.2,25.8,56.2,24.5,56.2z M27.4,51.9c-0.6-0.9-1.7-1.5-2.9-1.5c-1.9,0-3.5,1.6-3.5,3.5c0,0.2,0,0.4,0.1,0.5c-4.4,1.2-7.8,0.7-9.8-1.2c-2.2-2.2-2.5-6.1-1-10.8c4.2,2,9.8,3.4,16,3.9c1.5,1.3,3.1,2.5,4.7,3.5C29.7,50.6,28.5,51.3,27.4,51.9z M52.8,53.2c-2.4,2.4-6.8,2.5-12.4,0.4c-2.4-0.9-4.9-2.2-7.3-3.8c1.6-1.1,3.1-2.3,4.6-3.5c6.3-0.5,11.8-1.9,16.1-3.9C55.2,47.1,55,50.9,52.8,53.2z M54.5,40.7c-1-2.6-2.4-5.5-4.3-8.3c1.9-2.9,3.3-5.7,4.3-8.3c0.1,0.1,0.3,0.2,0.4,0.2c-0.2,0.4-0.3,0.9-0.3,1.4c0,1.9,1.6,3.5,3.5,3.5c0.7,0,1.4-0.2,2-0.6c0.9,1.2,1.3,2.5,1.3,3.8C61.4,35.6,58.8,38.5,54.5,40.7z"></path></svg>