<svg version="1.1" id="Layer_104" xmlns="http://www.w3.org/2000/svg" xmlns:xlink="http://www.w3.org/1999/xlink" x="0px" y="0px" viewBox="0 0 64 64" style="enable-background:new 0 0 64 64" xml:space="preserve"><path d="M50.8,26.9c-1.8,0-3.6,0.4-5.3,1.2l-3.3-5.7c0-0.1,0-0.2,0-0.2c-0.1-0.1-0.1-0.2-0.2-0.2l-2.7-4.7h5.6c0.9,0,1.7,0.7,1.7,1.6c0,0.9-0.9,1.6-1.8,1.6c-0.5,0-0.8,0.4-0.8,0.8c0,0.4,0.3,0.8,0.7,0.8c1.8,0,3.3-1.4,3.2-3.1c0-1.7-1.5-3.1-3.2-3.1h-6.9c-0.2,0-0.5,0.2-0.6,0.4c-0.1,0.2-0.1,0.5,0,0.7l2.8,4.8H23l-1.6-2.8c2.6-0.1,5.6-0.6,5.6-2.8c0-2.9-7.2-2.9-7.3-2.9c-3.1,0-4.6,1-4.6,2.9c0,1.4,0.8,2.9,4.6,2.9h0l2,3.5L18.6,28c-1.6-0.8-3.4-1.2-5.3-1.2c-6.7,0-12,5.2-12,12c0,6.6,5.4,12,12,12c6.3,0,11.6-5.1,12-11.3H32c0.1,0,0.3,0,0.3,0c0.2-0.1,0.3-0.3,0.4-0.4l4.6-8.1l4.1-6.8l2.7,4.7c-3.4,2.3-5.4,5.9-5.4,9.9c0,6.6,5.4,12,12,12c6.6,0,12.1-5.4,12.1-11.9C62.8,32.3,57.4,26.9,50.8,26.9z M16.7,16.2c0-1,0.9-1.4,3-1.4c2.7,0,5.8,0.7,5.9,1.4c0,0.6-1.3,1.3-5.1,1.4c-0.2-0.1-0.5-0.1-0.7,0C16.7,17.6,16.7,16.5,16.7,16.2z M30.7,38h-5.4c-0.3-3.7-2.2-7.1-5.4-9.2l2.7-4.8L30.7,38z M22.2,38c-0.2-2.7-1.6-5.1-3.8-6.6l0.8-1.4c2.7,1.9,4.4,4.8,4.7,8H22.2zM12.7,39.1c0.1,0.3,0.3,0.4,0.6,0.4h7.5c-0.4,3.8-3.6,6.7-7.5,6.7c-4.1,0-7.5-3.4-7.5-7.5c0-4.1,3.3-7.5,7.5-7.5c1.1,0,2.2,0.3,3.1,0.7l-3.7,6.5C12.6,38.6,12.6,38.8,12.7,39.1z M14.6,38l3.1-5.4c1.8,1.4,2.9,3.3,3.1,5.4H14.6z M13.3,49.2c-5.8,0-10.5-4.7-10.5-10.5c0-5.9,4.6-10.5,10.5-10.5c1.6,0,3.2,0.4,4.6,1.1l-0.8,1.4c-1.2-0.5-2.5-0.8-3.8-0.8c-4.9,0-9,4-9,9s4,9,9,9c4.7,0,8.5-3.7,8.9-8.3h1.7C23.4,44.9,18.8,49.2,13.3,49.2z M32,37.4l-8.1-14.2h16.3L32,37.4z M50.7,49.1c-5.8,0-10.5-4.7-10.5-10.5c0-3.4,1.7-6.6,4.6-8.6l0.8,1.4c-2.4,1.7-3.9,4.4-3.9,7.4c0,4.9,4,9,9,9s9.1-4.2,9.1-9.1c0-4.9-4-9-9-9c-1.3,0-2.7,0.3-3.8,0.9l-0.8-1.4c1.4-0.7,3-1,4.5-1c5.8,0,10.5,4.8,10.5,10.4C61.2,44.4,56.5,49.1,50.7,49.1z M50,39.1c0.2,0.3,0.4,0.4,0.7,0.4c0.1,0,0.3,0,0.5-0.1c0.4-0.2,0.5-0.6,0.3-1l-3.8-6.6c0.9-0.4,2-0.6,3-0.6c4.2,0,7.5,3.4,7.5,7.5c0,4.1-3.4,7.5-7.5,7.5c-4.1,0-7.5-3.3-7.5-7.5c0-2.4,1.1-4.7,3.1-6L50,39.1z"/></svg>







