<svg version="1.1" id="Layer_1" xmlns="http://www.w3.org/2000/svg" xmlns:xlink="http://www.w3.org/1999/xlink" x="0px" y="0px" viewBox="0 0 64 64" style="enable-background:new 0 0 64 64" xml:space="preserve"><path d="M51.9,53.2L51.9,53.2v-3.6v0c0-0.3-0.3-0.6-0.6-0.6h-4.1c-0.3,0-0.6,0.3-0.6,0.6v0v3.6v0c0,0.3,0.3,0.6,0.6,0.6h4.1C51.7,53.8,51.9,53.6,51.9,53.2z M47.8,52.6v-2.4h2.9v2.4H47.8z M47.2,47.2h4.1c0.3,0,0.6-0.3,0.6-0.6v0V43v0c0-0.3-0.3-0.6-0.6-0.6h-4.1c-0.3,0-0.6,0.3-0.6,0.6v0v3.6v0C46.6,46.9,46.9,47.2,47.2,47.2z M47.8,46v-2.4h2.9V46H47.8z M44.2,29.1h-4.1c-0.3,0-0.6,0.3-0.6,0.6v3.6c0,0.3,0.3,0.6,0.6,0.6h4.1c0.3,0,0.6-0.3,0.6-0.6v-3.6C44.8,29.4,44.6,29.1,44.2,29.1z M43.6,32.6h-2.9v-2.4h2.9V32.6z M47.2,33.8h4.1c0.3,0,0.6-0.3,0.6-0.6v-3.6c0-0.3-0.3-0.6-0.6-0.6h-4.1c-0.3,0-0.6,0.3-0.6,0.6v3.6C46.6,33.6,46.9,33.8,47.2,33.8z M47.8,30.3h2.9v2.4h-2.9V30.3z M44.2,35.8h-4.1c-0.3,0-0.6,0.3-0.6,0.6v3.6c0,0.3,0.3,0.6,0.6,0.6h4.1c0.3,0,0.6-0.3,0.6-0.6v-3.6C44.8,36,44.6,35.8,44.2,35.8z M43.6,39.3h-2.9V37h2.9V39.3z M47.2,40.5h4.1c0.3,0,0.6-0.3,0.6-0.6v-3.6c0-0.3-0.3-0.6-0.6-0.6h-4.1c-0.3,0-0.6,0.3-0.6,0.6v3.6C46.6,40.2,46.9,40.5,47.2,40.5z M47.8,37h2.9v2.4h-2.9V37z M44.2,42.4h-4.1c-0.3,0-0.6,0.3-0.6,0.6v0v3.6v0c0,0.3,0.3,0.6,0.6,0.6h4.1c0.3,0,0.6-0.3,0.6-0.6v0V43v0C44.8,42.7,44.6,42.4,44.2,42.4z M43.6,43.6V46h-2.9v-2.4H43.6z M44.2,49.1h-4.1c-0.3,0-0.6,0.3-0.6,0.6v0v3.6v0c0,0.3,0.3,0.6,0.6,0.6h4.1c0.3,0,0.6-0.3,0.6-0.6v0v-3.6v0C44.8,49.3,44.6,49.1,44.2,49.1z M43.6,50.3v2.4h-2.9v-2.4H43.6z M62,58.4h-7.2V27.3h0.8c0.3,0,0.6-0.3,0.6-0.6v-3c0-0.3-0.3-0.6-0.6-0.6H44.7L38.2,6.2h0c0.3,0,0.6-0.3,0.6-0.6V2c0-0.3-0.3-0.6-0.6-0.6H19c-0.3,0-0.6,0.3-0.6,0.6v3.6c0,0.3,0.3,0.6,0.6,0.6h0.3v5H8.4c-0.3,0-0.6,0.3-0.6,0.6v3.6c0,0.3,0.3,0.6,0.6,0.6h1.1v3.4c0,0,0,0,0,0s0,0,0,0v3.6v0v3.8c0,0,0,0,0,0s0,0,0,0v3.6c0,0,0,0,0,0s0,0,0,0V34v3.6v3.8v3.6v0v3.8v3.6c0,0,0,0,0,0s0,0,0,0v6.2H2c-0.3,0-0.6,0.3-0.6,0.6v3c0,0.3,0.3,0.6,0.6,0.6h60c0.3,0,0.6-0.3,0.6-0.6v-3C62.6,58.7,62.3,58.4,62,58.4z M41.8,58.4v-2.2h7.9v2.2H41.8z M50.3,55h-9.1c-0.3,0-0.6,0.3-0.6,0.6v2.8h-2.7V27.3h15.7v31.1h-2.7v-2.8C50.9,55.3,50.6,55,50.3,55z M55,26.1H37.3h-0.8v-1.8h7.9H55V26.1z M19.6,2.6h18V5h-0.3c0,0,0,0,0,0H19.9c0,0,0,0,0,0h-0.3V2.6z M20.5,6.2h16.4l6.5,16.9h-7.6h0c-0.3,0-0.6,0.3-0.6,0.6v3c0,0.3,0.3,0.6,0.6,0.6h0h0.8v31.1h-5.5v-6.2v-3.6v0v-3.8v-3.6v0v-3.8V34v-3.8v0v-3.6v0v-3.8v0v-3.6v0V16h1.1c0.3,0,0.6-0.3,0.6-0.6v0v-3.6v0c0-0.3-0.3-0.6-0.6-0.6H20.5V6.2z M29.9,27.3v2.4h-2.4v-2.4H29.9z M29.9,22.3h-2.4V20h2.4V22.3z M29.9,36.9h-2.4v-2.4h2.4V36.9z M27.6,41.9h2.4v2.4h-2.4V41.9z M27.6,49.2h2.4v2.4h-2.4V49.2z M9,12.4h10.9c0,0,0,0,0,0h11.8v2.4h-1.1c0,0,0,0,0,0H10.2c0,0,0,0,0,0H9V12.4z M23,51.6H10.8v-2.4H23V51.6z M23,44.3H10.8v-2.4H23V44.3z M10.8,34.6H23v2.4H10.8V34.6z M10.8,29.6v-2.4H23v2.4H10.8z M10.8,20H23v2.4H10.8V20z M10.8,52.8h12.8c0.3,0,0.6-0.3,0.6-0.6v0v-3.6c0-0.3-0.3-0.6-0.6-0.6H10.8v-2.6h12.8c0.3,0,0.6-0.3,0.6-0.6v0v-3.6c0-0.3-0.3-0.6-0.6-0.6H10.8v-2.6h12.8c0.3,0,0.6-0.3,0.6-0.6V34c0-0.3-0.3-0.6-0.6-0.6H10.8v-2.6h12.8c0.3,0,0.6-0.3,0.6-0.6v0v-3.6v0c0-0.3-0.3-0.6-0.6-0.6H10.8v-2.6h12.8c0.3,0,0.6-0.3,0.6-0.6v0v-3.6v0c0-0.3-0.3-0.6-0.6-0.6H10.8V16h19.1v2.8h-3c-0.3,0-0.6,0.3-0.6,0.6v0v3.6v0c0,0.3,0.3,0.6,0.6,0.6h3v2.6h-3c-0.3,0-0.6,0.3-0.6,0.6v0v3.6v0c0,0.3,0.3,0.6,0.6,0.6h3v2.6h-3c-0.3,0-0.6,0.3-0.6,0.6v3.6c0,0.3,0.3,0.6,0.6,0.6h3v2.6h-3c-0.3,0-0.6,0.3-0.6,0.6v0v3.6c0,0.3,0.3,0.6,0.6,0.6h3V48h-3c-0.3,0-0.6,0.3-0.6,0.6v0v3.6c0,0.3,0.3,0.6,0.6,0.6h3v5.6h-3.6v-2.8c0-0.3-0.3-0.6-0.6-0.6H15.1h0c-0.3,0-0.6,0.3-0.6,0.6v2.8h-3.7V52.8z M15.7,58.4v-2.2h9.4v2.2H15.7z M61.4,61.4H2.6v-1.8h7.6h4.9h0h10.6h4.8h6.7h3.9h9.1h3.9h7.2V61.4z"></path></svg>