<svg version="1.1" id="Layer_1" xmlns="http://www.w3.org/2000/svg" xmlns:xlink="http://www.w3.org/1999/xlink" x="0px" y="0px" viewBox="0 0 64 64" style="enable-background:new 0 0 64 64" xml:space="preserve"><path d="M38,41.8c0-8.4-6.8-15.3-15.3-15.3S7.5,33.3,7.5,41.8S14.3,57,22.8,57S38,50.2,38,41.8z M8.7,41.8c0-7.8,6.3-14.1,14.1-14.1S36.8,34,36.8,41.8s-6.3,14.1-14.1,14.1S8.7,49.5,8.7,41.8z M25.3,51.4v-1.9c3-0.7,4.8-2.6,4.8-5.1c0-3.2-2.5-4.3-4.7-4.7H29c0.3,0,0.6-0.3,0.6-0.6c0-2.5-1.6-4.5-4.3-5.3v-1.7c0-0.3-0.3-0.6-0.6-0.6h-4c-0.3,0-0.6,0.3-0.6,0.6v1.5c-2.9,0.7-4.6,2.6-4.6,5.1c0,4.1,3.9,4.6,6.5,5l0.4,0.1c1.6,0.2,2.2,0.5,2.2,0.9c0,0.8-1.4,0.8-1.7,0.8c-0.7,0-2.2-0.1-2.2-1.4c0-0.3-0.3-0.6-0.6-0.6H16c-0.3,0-0.6,0.3-0.6,0.6c0,2.6,1.8,4.7,4.7,5.4v1.9c0,0.3,0.3,0.6,0.6,0.6h4C25.1,52,25.3,51.7,25.3,51.4z M24.1,49v1.8h-2.8V49c0-0.3-0.2-0.5-0.5-0.6c-2.4-0.5-3.9-1.9-4.2-3.8h2.9c0.3,1.3,1.5,2,3.3,2c2.1,0,2.9-1,2.9-2c0-1.7-1.9-1.9-3.2-2.1l-0.4-0.1c-3.1-0.4-5.4-0.9-5.4-3.8c0-2.1,1.5-3.6,4.1-4.1c0.3,0,0.5-0.3,0.5-0.6v-1.4h2.8v1.5c0,0.3,0.2,0.5,0.5,0.6c2.1,0.5,3.5,1.9,3.8,3.7h-2.7c-0.3-1.3-1.4-2-3-2c-1.9,0-2.8,1-2.8,2c0,1.6,1.8,1.9,3.6,2.1l0.1,0c2.9,0.4,5.4,1,5.4,3.9c0,2.1-1.6,3.5-4.3,4C24.3,48.5,24.1,48.8,24.1,49z M24.7,39.5c-0.4-0.1-0.7-0.1-1-0.2l-0.1,0C22,39.1,21,39,21,38.4c0-0.5,0.8-0.8,1.6-0.8c0.7,0,1.8,0.2,1.8,1.4C24.5,39.3,24.6,39.4,24.7,39.5z M62.2,13.1h-2.4V8.4h1.4c0.3,0,0.6-0.3,0.6-0.6v-6c0-0.3-0.3-0.6-0.6-0.6h-40c-0.3,0-0.6,0.3-0.6,0.6v5.4h-1.4c-0.3,0-0.6,0.3-0.6,0.6v6c0,0.3,0.3,0.6,0.6,0.6h2.4v4.8h-0.4c-0.3,0-0.6,0.3-0.6,0.6v1.5C10.2,22.3,2.1,31.1,2.1,41.8c0,11.4,9.2,20.6,20.6,20.6h38.4c0.3,0,0.6-0.3,0.6-0.6v-6c0-0.3-0.3-0.6-0.6-0.6h-1.4v-4.8h0.4c0.3,0,0.6-0.3,0.6-0.6v-5.4h0.4c0.3,0,0.6-0.3,0.6-0.6v-6c0-0.3-0.3-0.6-0.6-0.6h-1.4v-4.8h0.4c0.3,0,0.6-0.3,0.6-0.6v-5.4h0.4c0.3,0,0.6-0.3,0.6-0.6v-5.4h0.4c0.3,0,0.6-0.3,0.6-0.6v-6C62.8,13.4,62.5,13.1,62.2,13.1z M21.8,2.4h38.8v4.8h-1.4H21.8V2.4z M19.8,8.4h1.4h37.4v4.8H22.2h-2.4V8.4z M22.8,14.4h36.4h2.4v4.8h-0.4H22.8V14.4z M3.4,41.8c0-10.7,8.7-19.4,19.4-19.4c0.6,0,1.2,0,1.8,0.1c0.2,0,0.4,0,0.6,0.1c0.4,0,0.8,0.1,1.2,0.2c0.2,0,0.4,0.1,0.6,0.1c0.4,0.1,0.7,0.2,1.1,0.3c0.2,0.1,0.4,0.1,0.6,0.2c0.4,0.1,0.7,0.2,1,0.4c0.5,0.2,1,0.4,1.5,0.6c0.2,0.1,0.4,0.2,0.5,0.3c0.4,0.2,0.7,0.4,1,0.6c0.1,0.1,0.3,0.2,0.4,0.2c0.3,0.2,0.7,0.5,1,0.7c0.1,0.1,0.2,0.1,0.3,0.2c0.4,0.3,0.8,0.7,1.2,1c0.1,0.1,0.2,0.2,0.3,0.3c0.4,0.3,0.7,0.7,1,1.1c0.1,0.1,0.2,0.2,0.3,0.3c0.3,0.4,0.6,0.8,0.9,1.2c0.1,0.1,0.2,0.2,0.3,0.3c0.3,0.4,0.6,0.9,0.9,1.3c0.1,0.1,0.1,0.2,0.2,0.3c0.2,0.3,0.4,0.7,0.5,1c0.1,0.2,0.2,0.4,0.3,0.6c0.1,0.3,0.3,0.6,0.4,0.9c0.1,0.3,0.2,0.6,0.3,0.9c0.1,0.2,0.2,0.5,0.2,0.7c0.2,0.5,0.3,1.1,0.4,1.6c0,0,0,0.1,0,0.1c0.1,0.3,0.1,0.5,0.1,0.8c0.1,0.4,0.1,0.7,0.2,1.1c0.1,0.6,0.1,1.3,0.1,2c0,0.7,0,1.3-0.1,1.9c0,0.1,0,0.2,0,0.3c-0.1,0.5-0.1,1-0.2,1.5c0,0.2-0.1,0.5-0.2,0.7c-0.1,0.3-0.2,0.7-0.3,1c-0.1,0.3-0.1,0.5-0.2,0.8c-0.1,0.3-0.2,0.6-0.3,0.9c-0.1,0.2-0.2,0.5-0.3,0.7c-0.1,0.2-0.2,0.4-0.3,0.6c-0.2,0.4-0.3,0.7-0.5,1c-0.2,0.4-0.5,0.8-0.7,1.1c-0.1,0.1-0.2,0.3-0.2,0.4c-0.3,0.5-0.7,1-1.1,1.5c-0.1,0.1-0.2,0.2-0.3,0.4c-0.3,0.3-0.6,0.7-0.9,1c-0.2,0.2-0.5,0.5-0.8,0.7c-0.2,0.2-0.4,0.4-0.7,0.6c-0.1,0.1-0.2,0.2-0.3,0.2c-2.8,2.2-6.2,3.7-9.9,4.1c-0.1,0-0.1,0-0.2,0c-0.6,0.1-1.3,0.1-2,0.1C12.1,61.2,3.4,52.4,3.4,41.8z M60.6,61.2H29.7c1.6-0.6,3.1-1.4,4.5-2.3c0,0,0,0,0,0c0.5-0.4,1-0.7,1.5-1.2c0,0,0.1-0.1,0.1-0.1c0.5-0.4,0.9-0.8,1.4-1.2h21.9h1.4V61.2z M58.6,55.2H38.4c0.1-0.1,0.1-0.1,0.2-0.2c0.1-0.1,0.1-0.2,0.2-0.3c0.3-0.4,0.6-0.8,0.9-1.2c0.1-0.1,0.2-0.2,0.2-0.4c0.3-0.5,0.6-1,0.9-1.5c0.1-0.1,0.1-0.2,0.2-0.3c0.2-0.3,0.3-0.6,0.5-1h17.1V55.2z M59.6,49.2h-0.4H42c0.2-0.4,0.3-0.8,0.4-1.2c0-0.1,0.1-0.2,0.1-0.4c0.1-0.5,0.3-1,0.4-1.4c0-0.1,0.1-0.3,0.1-0.4c0.1-0.5,0.2-0.9,0.2-1.4h16.4V49.2z M60.6,43.2h-0.4H43.3c0-0.5,0-0.9,0-1.4c0-0.6,0-1.3-0.1-1.9c0-0.2-0.1-0.4-0.1-0.6c0-0.3-0.1-0.6-0.1-0.9h16.1h1.4V43.2z M58.6,37.2H42.8c-0.1-0.5-0.2-0.9-0.4-1.4c0-0.1-0.1-0.3-0.1-0.4c-0.1-0.4-0.3-0.8-0.4-1.2c-0.1-0.2-0.2-0.4-0.2-0.6c-0.2-0.4-0.4-0.8-0.6-1.2h17.5V37.2z M59.6,31.1h-0.4H40.4c-0.1-0.1-0.1-0.2-0.2-0.3c-0.2-0.3-0.4-0.6-0.6-0.9c-0.1-0.2-0.3-0.4-0.5-0.6c-0.4-0.5-0.8-0.9-1.2-1.4c-0.2-0.2-0.3-0.4-0.5-0.5c-0.3-0.3-0.5-0.5-0.8-0.8c-0.1-0.1-0.2-0.2-0.3-0.3h23.2V31.1z M60.6,25.1h-0.4H34.9c-0.1,0-0.1-0.1-0.2-0.1c-0.3-0.2-0.7-0.5-1-0.7c-0.2-0.1-0.3-0.2-0.5-0.3c-0.3-0.2-0.6-0.4-1-0.6c-0.3-0.1-0.5-0.2-0.8-0.4c-0.3-0.1-0.6-0.3-0.9-0.4c-0.5-0.2-1-0.4-1.6-0.6c-0.2-0.1-0.4-0.1-0.6-0.2c-0.4-0.1-0.8-0.2-1.2-0.3c-0.2,0-0.4-0.1-0.6-0.1c-0.4-0.1-0.9-0.1-1.3-0.2c-0.2,0-0.4-0.1-0.6-0.1c-0.6-0.1-1.3-0.1-1.9-0.1c-0.3,0-0.6,0-1,0v-0.8h0.4h38.4V25.1z"></path></svg>