<svg version="1.1" id="Layer_1" xmlns="http://www.w3.org/2000/svg" xmlns:xlink="http://www.w3.org/1999/xlink" x="0px" y="0px" viewBox="0 0 64 64" style="enable-background:new 0 0 64 64" xml:space="preserve"><path d="M62,27.1h-7.8c-0.6-2.6-1.6-5.1-3.1-7.4l5.5-5.5c0.1-0.1,0.2-0.3,0.2-0.4s-0.1-0.3-0.2-0.4l-6-6c-0.2-0.2-0.6-0.2-0.8,0l-5.5,5.5c-2.3-1.5-4.7-2.5-7.4-3.1V2c0-0.3-0.3-0.6-0.6-0.6h-8.5c-0.3,0-0.6,0.3-0.6,0.6v7.8c-2.6,0.6-5.1,1.6-7.4,3.1l-5.5-5.5c-0.2-0.2-0.6-0.2-0.8,0l-6,6c-0.1,0.1-0.2,0.3-0.2,0.4s0.1,0.3,0.2,0.4l5.5,5.5c-1.5,2.3-2.5,4.8-3.1,7.4H2c-0.3,0-0.6,0.3-0.6,0.6v8.5c0,0.3,0.3,0.6,0.6,0.6h7.8c0.6,2.6,1.6,5.1,3.1,7.4l-5.5,5.5c-0.1,0.1-0.2,0.3-0.2,0.4s0.1,0.3,0.2,0.4l6,6c0.2,0.2,0.6,0.2,0.8,0l5.5-5.5c2.3,1.5,4.7,2.5,7.4,3.1V62c0,0.3,0.3,0.6,0.6,0.6h8.5c0.3,0,0.6-0.3,0.6-0.6v-7.8c2.6-0.6,5.1-1.6,7.4-3.1l5.5,5.5c0.2,0.2,0.6,0.2,0.8,0l6-6c0.1-0.1,0.2-0.3,0.2-0.4s-0.1-0.3-0.2-0.4l-5.5-5.5c1.5-2.3,2.5-4.8,3.1-7.4H62c0.3,0,0.6-0.3,0.6-0.6v-8.5C62.6,27.4,62.3,27.1,62,27.1z M61.4,35.7h-7.7c-0.3,0-0.5,0.2-0.6,0.5c-0.6,2.8-1.6,5.5-3.3,7.9c-0.2,0.2-0.1,0.6,0.1,0.8l5.5,5.4l-5.2,5.2l-5.5-5.5c-0.2-0.2-0.5-0.2-0.8-0.1c-2.4,1.6-5,2.7-7.8,3.2c-0.3,0.1-0.5,0.3-0.5,0.6v7.7h-7.3v-7.7c0-0.3-0.2-0.5-0.5-0.6c-2.8-0.6-5.5-1.6-7.8-3.2c-0.2-0.2-0.6-0.1-0.8,0.1l-5.5,5.5l-5.2-5.2l5.5-5.4c0.2-0.2,0.2-0.5,0.1-0.8c-1.6-2.4-2.7-5-3.3-7.9c-0.1-0.3-0.3-0.5-0.6-0.5H2.6v-7.3h7.7c0.3,0,0.5-0.2,0.6-0.5c0.6-2.8,1.6-5.5,3.3-7.8c0.2-0.2,0.1-0.6-0.1-0.8l-5.5-5.5l5.2-5.2l5.5,5.5c0.2,0.2,0.5,0.2,0.8,0.1c2.4-1.6,5-2.7,7.8-3.2c0.3-0.1,0.5-0.3,0.5-0.6V2.6h7.3v7.7c0,0.3,0.2,0.5,0.5,0.6c2.8,0.5,5.5,1.6,7.8,3.2c0.2,0.2,0.6,0.1,0.8-0.1l5.5-5.5l5.2,5.2l-5.5,5.5c-0.2,0.2-0.2,0.5-0.1,0.8c1.6,2.4,2.7,5,3.3,7.8c0.1,0.3,0.3,0.5,0.6,0.5h7.7V35.7z M36.1,18.5c-1.9-3.4-3.6-5.9-3.7-5.9c-0.1-0.2-0.3-0.3-0.5-0.3s-0.4,0.1-0.5,0.3c0,0-1.8,2.5-3.7,5.9c-5.9,1.8-10,7.3-10,13.5c0,7.5,5.9,13.6,13.2,14.1c0.3,0,0.6,0,0.9,0c0,0,0,0,0,0s0,0,0,0c0.3,0,0.5,0,0.9,0c7.4-0.5,13.2-6.6,13.2-14.1C46.1,25.8,42,20.3,36.1,18.5z M32,14c0.9,1.4,3,4.7,4.8,8.5c1.4,3,2.3,5.8,2.8,8.2c0,0,0,0,0,0c0.2,1,0.3,1.9,0.3,2.7c0,7.1-2.6,11.1-7.2,11.5v-5.1l5.3-5.3c0.2-0.2,0.2-0.6,0-0.8c-0.2-0.2-0.6-0.2-0.8,0L32.6,38v-6.8l3.1-3.1c0.2-0.2,0.2-0.6,0-0.8s-0.6-0.2-0.8,0l-2.2,2.2V22c0-0.3-0.3-0.6-0.6-0.6s-0.6,0.3-0.6,0.6v7.5l-2.2-2.2c-0.2-0.2-0.6-0.2-0.8,0s-0.2,0.6,0,0.8l3.1,3.1V38L27,33.6c-0.2-0.2-0.6-0.2-0.8,0s-0.2,0.6,0,0.8l5.3,5.3v5.1c-4.7-0.3-7.2-4.4-7.2-11.5c0-0.8,0.1-1.8,0.3-2.8c0.4-2.4,1.3-5.1,2.8-8.2C29,18.7,31.1,15.4,32,14z M19.1,32c0-5.2,3.2-9.9,7.9-11.9c-0.3,0.6-0.6,1.2-0.9,1.9c-1.5,3.1-2.4,6-2.9,8.5c-0.2,1-0.3,2-0.3,3c0,4.9,1.2,8,2.7,9.8C21.8,41,19.1,36.8,19.1,32z M38.3,43.2c1.6-1.9,2.7-4.9,2.7-9.8c0-0.9-0.1-1.9-0.3-3c-0.4-2.5-1.4-5.3-2.9-8.5c-0.3-0.6-0.6-1.3-0.9-1.9c4.7,2,7.9,6.7,7.9,11.9C44.9,36.8,42.2,41,38.3,43.2z"></path></svg>