<svg version="1.1" id="Layer_1" xmlns="http://www.w3.org/2000/svg" xmlns:xlink="http://www.w3.org/1999/xlink" x="0px" y="0px" viewBox="0 0 64 64" style="enable-background:new 0 0 64 64" xml:space="preserve"><path d="M46.7,10.7c0-0.1,0-0.1,0-0.2c0,0,0,0,0-0.1c0-0.1-0.1-0.2-0.2-0.2l-9-8.7c0,0-0.1-0.1-0.1-0.1c0,0-0.1,0-0.1,0c0,0,0,0-0.1,0c-0.1,0-0.1,0-0.2,0c0,0,0,0,0,0H2C1.6,1.3,1.2,1.6,1.2,2v60c0,0.4,0.3,0.8,0.8,0.8h44c0.4,0,0.8-0.3,0.8-0.8L46.7,10.7C46.8,10.7,46.7,10.7,46.7,10.7z M37.8,3.8l6.4,6.2h-6.4V3.8z M2.8,61.2V2.8h33.5v8c0,0.4,0.3,0.8,0.8,0.8h0h8.2v49.8H2.8z"></path><path d="M21.9,9.8H7.5C7.1,9.8,6.8,9.4,6.8,9s0.3-0.8,0.8-0.8h14.4c0.4,0,0.8,0.3,0.8,0.8S22.4,9.8,21.9,9.8z"></path><path d="M40.3,20.8H7.7C7.3,20.8,7,20.4,7,20s0.3-0.8,0.8-0.8h32.6c0.4,0,0.8,0.3,0.8,0.8S40.7,20.8,40.3,20.8z"></path><path d="M40.3,25.8H7.7C7.3,25.8,7,25.4,7,25s0.3-0.8,0.8-0.8h32.6c0.4,0,0.8,0.3,0.8,0.8S40.7,25.8,40.3,25.8z"></path><path d="M40.3,30.8H7.7C7.3,30.8,7,30.4,7,30s0.3-0.8,0.8-0.8h32.6c0.4,0,0.8,0.3,0.8,0.8S40.7,30.8,40.3,30.8z"></path><path d="M40.3,35.8H7.7C7.3,35.8,7,35.4,7,35s0.3-0.8,0.8-0.8h32.6c0.4,0,0.8,0.3,0.8,0.8S40.7,35.8,40.3,35.8z"></path><path d="M40.3,40.8H7.7C7.3,40.8,7,40.4,7,40s0.3-0.8,0.8-0.8h32.6c0.4,0,0.8,0.3,0.8,0.8S40.7,40.8,40.3,40.8z"></path><path d="M40.3,45.8H7.7C7.3,45.8,7,45.4,7,45s0.3-0.8,0.8-0.8h32.6c0.4,0,0.8,0.3,0.8,0.8S40.7,45.8,40.3,45.8z"></path><path d="M26.9,50.8H7.7C7.3,50.8,7,50.4,7,50s0.3-0.8,0.8-0.8h19.2c0.4,0,0.8,0.3,0.8,0.8S27.3,50.8,26.9,50.8z"></path><path d="M61.1,9.2H59h-8c-0.4,0-0.8,0.3-0.8,0.8v20c0,0.4,0.3,0.8,0.8,0.8h0.8V54c0,0.4,0.3,0.8,0.8,0.8h5c0.4,0,0.8-0.3,0.8-0.8V30.8H59c0.4,0,0.8-0.3,0.8-0.8V10.8h1.3c0.1,0,0.2,0.1,0.2,0.2V30c0,0.4,0.3,0.8,0.8,0.8s0.8-0.3,0.8-0.8V10.9C62.8,10,62,9.2,61.1,9.2z M56.8,53.2h-3.5V30.8h3.5V53.2z M58.2,29.2h-0.8h-5h-0.8V10.8h6.5V29.2z"></path></svg>