<svg version="1.1" id="Layer_105" xmlns="http://www.w3.org/2000/svg" xmlns:xlink="http://www.w3.org/1999/xlink" x="0px" y="0px" viewBox="0 0 64 64" style="enable-background:new 0 0 64 64" xml:space="preserve"><g id="icons_x2F_64px2-greenhome"><g transform="translate(1.000000, 6.000000)"><g id="Stroke-5"><path d="M19.8,35.1H12c-0.4,0-0.8-0.3-0.8-0.8v-8.9c0-0.4,0.3-0.8,0.8-0.8h7.8c0.4,0,0.8,0.3,0.8,0.8v8.9C20.6,34.8,20.2,35.1,19.8,35.1z M12.8,33.6h6.3v-7.4h-6.3V33.6z"/></g><g id="Stroke-6"><path d="M49.5,35.1h-7.8c-0.4,0-0.8-0.3-0.8-0.8v-8.9c0-0.4,0.3-0.8,0.8-0.8h7.8c0.4,0,0.8,0.3,0.8,0.8v8.9C50.2,34.8,49.9,35.1,49.5,35.1z M42.4,33.6h6.3v-7.4h-6.3V33.6z"/></g><path d="M61.2,20.5L32.7,0.6c-1.2-0.8-2.7-0.8-3.9,0l-28.5,20c-0.4,0.2-0.4,0.7-0.2,1l3,4.3c0.1,0.2,0.3,0.3,0.5,0.3c0.2,0.1,0.4,0,0.6-0.1l0.9-0.6v24.9c0,0.5,0.4,0.8,0.8,0.8h49.7c0.5,0,0.8-0.4,0.8-0.7v-25l0.9,0.6c0.1,0.1,0.3,0.1,0.4,0.1c0.3,0,0.5-0.1,0.7-0.4l3-4.3C61.6,21.2,61.5,20.7,61.2,20.5z M36.8,38.7c-0.3-0.3-0.8-0.3-1.1,0l-4.1,4.1v-6.1l2.9-3c0.3-0.3,0.3-0.8,0-1.1c-0.3-0.3-0.8-0.3-1.1,0l-1.8,1.8v-6.8c0-0.5-0.3-0.8-0.8-0.8S30,27.2,30,27.6v6.8l-1.8-1.8c-0.3-0.3-0.8-0.3-1.1,0c-0.3,0.3-0.3,0.8,0,1.1l2.9,2.9v6l-3.9-3.9c-0.3-0.3-0.8-0.3-1.1,0s-0.3,0.8,0,1.1l5,5v4.8c-4.4-0.4-6.8-4.2-6.8-11c0-0.8,0.1-1.7,0.3-2.6c0.4-2.3,1.3-5,2.7-7.9c1.6-3.5,3.5-6.6,4.5-8c1,1.4,2.9,4.5,4.6,8c1.4,2.9,2.3,5.6,2.7,7.9c0.1,0.9,0.2,1.8,0.2,2.6c0,6.6-2.4,10.5-6.6,11V45l5.2-5.2C37.1,39.5,37.1,39,36.8,38.7z M54.9,49.7H35.6c2.2-1.6,4.1-4.7,4.1-11c0-0.9-0.1-1.9-0.3-2.9c-0.4-2.4-1.4-5.2-2.8-8.3c-2.4-5.1-5.2-9-5.3-9.2c-0.1-0.2-0.4-0.3-0.6-0.3s-0.5,0.1-0.6,0.3c-0.1,0.2-2.9,4.2-5.3,9.2c-1.4,3.1-2.4,5.9-2.8,8.3c-0.2,1-0.3,2-0.3,2.9c0,6.3,1.9,9.4,4.1,11H6.6V24.4l4.4-3.1L30.7,7.5l24.2,16.9V49.7z M57.5,24.3L31.1,5.9c-0.1-0.1-0.2-0.1-0.4-0.1c-0.1,0-0.3,0.1-0.4,0.2L3.9,24.4l-2.1-3.1L29.7,1.8c0.6-0.4,1.5-0.4,2.1,0l27.8,19.4L57.5,24.3z"/></g></g></svg>

