<svg version="1.1" id="Layer_1" xmlns="http://www.w3.org/2000/svg" xmlns:xlink="http://www.w3.org/1999/xlink" x="0px" y="0px" viewBox="0 0 64 64" style="enable-background:new 0 0 64 64" xml:space="preserve"><path d="M32,1.4C32,1.4,31.9,1.4,32,1.4C19.5,1.4,9.4,11.5,9.4,23.9c0,4.5,1.3,8.9,3.9,12.6c0.6,0.9,1.3,1.8,2,2.6c0.8,1.1,1.9,2.1,2.9,3.1c2.5,2.5,4.9,4.8,4.8,9.4c0,0,0,0.1,0,0.1v3.2h-0.8c-0.3,0-0.6,0.3-0.6,0.6s0.3,0.6,0.6,0.6H23v2h-0.8c-0.3,0-0.6,0.3-0.6,0.6s0.3,0.6,0.6,0.6H23V62c0,0.3,0.3,0.6,0.6,0.6h16.6c0.3,0,0.6-0.3,0.6-0.6v-2.8h0.8c0.3,0,0.6-0.3,0.6-0.6S41.9,58,41.6,58h-0.8v-2h0.8c0.3,0,0.6-0.3,0.6-0.6s-0.3-0.6-0.6-0.6h-0.8v-3.2c0,0,0,0,0,0c-0.1-4.6,2.3-6.9,4.8-9.4c1-1,2-2,2.8-3.1c0.8-0.8,1.5-1.7,2.1-2.6c2.5-3.8,3.9-8.1,3.9-12.6C54.4,11.5,44.4,1.4,32,1.4z M39.5,30.1c0,6.9-2.5,10.8-7,11.1v-5l5.1-5.1c0.2-0.2,0.2-0.6,0-0.8s-0.6-0.2-0.8,0l-4.3,4.3V28l3-3c0.2-0.2,0.2-0.6,0-0.8s-0.6-0.2-0.8,0l-2.1,2.1V19c0-0.3-0.3-0.6-0.6-0.6s-0.6,0.3-0.6,0.6v7.3l-2.1-2.1c-0.2-0.2-0.6-0.2-0.8,0s-0.2,0.6,0,0.8l3,3v6.6L27,30.3c-0.2-0.2-0.6-0.2-0.8,0s-0.2,0.6,0,0.8l5.1,5.1v5c-4.5-0.3-7-4.2-7-11.1c0-0.8,0.1-1.7,0.3-2.7c0.4-2.3,1.3-5,2.7-8c1.7-3.7,3.8-6.9,4.7-8.2c0.9,1.4,2.9,4.5,4.7,8.2c1.4,3,2.3,5.6,2.7,8c0,0,0,0,0,0C39.4,28.3,39.5,29.2,39.5,30.1z M31.9,52.2C31.9,52.2,31.9,52.2,31.9,52.2C31.9,52.2,31.9,52.2,31.9,52.2h7.7v2.6H24.2v-2.6H31.9z M24.2,56.1h15.4v2H24.2V56.1z M39.6,61.4H24.2v-2.2h15.4V61.4z M49.6,35.9c-0.6,0.9-1.3,1.7-2,2.5c-0.8,1.1-1.7,2-2.7,3c-2.5,2.4-5,4.9-5.2,9.6h-7.1v-8.6c2.9-0.2,8.2-2,8.2-12.3c0-0.9-0.1-1.9-0.3-2.9c-0.4-2.4-1.4-5.2-2.8-8.3c-2.3-5-5.2-9.1-5.3-9.1c-0.1-0.2-0.3-0.3-0.5-0.3s-0.4,0.1-0.5,0.3c0,0-2.9,4.1-5.3,9.1c-1.4,3.1-2.4,5.8-2.8,8.3c-0.2,1-0.3,2-0.3,2.9c0,10.4,5.3,12.2,8.2,12.3V51h-7.1c-0.1-4.7-2.7-7.2-5.2-9.6c-1-1-1.9-1.9-2.8-3c-0.7-0.8-1.4-1.6-2-2.5c-2.4-3.5-3.7-7.7-3.7-12c0-11.7,9.5-21.3,21.3-21.3c0,0,0.1,0,0.1,0c11.7,0,21.3,9.6,21.3,21.3C53.2,28.2,52,32.3,49.6,35.9z M21.7,8.7c0.2,0.3,0.1,0.6-0.1,0.8c-4.6,3.3-7.3,8.7-7.3,14.3c0,0.3-0.3,0.6-0.6,0.6S13,24.2,13,23.9c0-6,2.9-11.8,7.8-15.3C21.1,8.4,21.5,8.5,21.7,8.7z M26.2,6.5c0.1,0.3,0,0.7-0.4,0.8C25.2,7.5,24.6,7.8,24,8c-0.1,0-0.2,0.1-0.3,0.1c-0.2,0-0.4-0.1-0.5-0.3c-0.1-0.3,0-0.7,0.3-0.8c0.6-0.3,1.2-0.6,1.9-0.8C25.7,6,26,6.2,26.2,6.5z"></path></svg>