<svg version="1.1" id="Layer_106" xmlns="http://www.w3.org/2000/svg" xmlns:xlink="http://www.w3.org/1999/xlink" x="0px" y="0px" viewBox="0 0 64 64" style="enable-background:new 0 0 64 64" xml:space="preserve"><g id="icons_x2F_64px3-idea"><g id="Group-25"><g transform="translate(10.000000, 2.000000)"><g id="Stroke-112"><path d="M3.6,22.7c-0.4,0-0.8-0.3-0.8-0.8c0-6.1,2.9-11.9,7.9-15.4c0.3-0.2,0.8-0.2,1,0.2c0.2,0.3,0.2,0.8-0.2,1C7.1,11,4.3,16.3,4.3,21.9C4.3,22.3,4,22.7,3.6,22.7z"/></g><g id="Stroke-13-2"><path d="M13.8,6.3c-0.3,0-0.5-0.2-0.7-0.4c-0.2-0.4,0-0.8,0.3-1C14,4.5,14.7,4.3,15.3,4c0.4-0.1,0.8,0.1,1,0.4c0.1,0.4-0.1,0.8-0.4,1c-0.6,0.2-1.2,0.5-1.7,0.8C14,6.2,13.9,6.3,13.8,6.3z"/></g><path d="M22-0.8L22-0.8C9.4-0.8-0.8,9.4-0.8,22c0,4.5,1.3,8.9,3.9,12.7c0.6,1,1.3,1.8,2,2.6C6,38.4,7,39.4,8,40.4c2.5,2.5,4.9,4.8,4.8,9.3v2.9h-0.6c-0.5,0-0.8,0.3-0.8,0.8s0.4,0.8,0.8,0.8h0.6v1.6h-0.6c-0.5,0-0.8,0.3-0.8,0.8s0.4,0.8,0.8,0.8h0.6V60c0,0.5,0.4,0.8,0.8,0.8h16.6c0.5,0,0.8-0.4,0.8-0.8v-2.6h0.6c0.4,0,0.8-0.3,0.8-0.8s-0.4-0.8-0.8-0.8H31v-1.6h0.6c0.4,0,0.8-0.3,0.8-0.8s-0.4-0.8-0.8-0.8H31v-3c0-4.6,2.3-6.9,4.8-9.3c1-1,2-2,2.8-3.1c0.8-0.8,1.5-1.7,2.1-2.6c2.5-3.8,3.9-8.2,3.9-12.7C44.6,9.4,34.5-0.8,22-0.8z M29.5,59.3H14.4v-1.9h15.1V59.3z M29.5,55.8H14.4v-1.6h15.1V55.8zM29.5,52.6H14.4v-2.2h15.1V52.6z M27.9,28.1c-0.3-0.3-0.8-0.3-1.1,0l-4.1,4.1v-6.1l2.9-3c0.3-0.3,0.3-0.8,0-1.1c-0.3-0.3-0.8-0.3-1.1,0l-1.8,1.8V17c0-0.5-0.3-0.8-0.8-0.8s-0.8,0.4-0.8,0.8v6.8L19.3,22c-0.3-0.3-0.8-0.3-1.1,0s-0.3,0.8,0,1.1l2.9,2.9v6l-3.9-3.9c-0.3-0.3-0.8-0.3-1.1,0c-0.3,0.3-0.3,0.8,0,1.1l5,5V39c-4.3-0.4-6.7-4.3-6.7-11c0-0.8,0.1-1.7,0.3-2.6c0.4-2.3,1.3-5,2.7-7.9c1.6-3.5,3.5-6.6,4.5-8c1,1.4,2.9,4.5,4.6,8c1.4,2.9,2.3,5.6,2.7,7.9c0.1,0.9,0.2,1.8,0.2,2.6c0,6.7-2.4,10.5-6.7,11v-4.6l5.2-5.2C28.2,28.9,28.2,28.4,27.9,28.1z M39.4,33.9c-0.6,0.8-1.2,1.7-2,2.5c-0.8,1-1.7,1.9-2.7,2.9c-2.5,2.4-5,4.9-5.2,9.5h-6.8v-8.2c3-0.3,8.2-2.2,8.2-12.5c0-0.9-0.1-1.9-0.3-2.9c-0.4-2.4-1.4-5.2-2.8-8.3c-2.4-5.1-5.2-9-5.3-9.2s-0.4-0.3-0.6-0.3c-0.2,0-0.5,0.1-0.6,0.3c-0.1,0.2-2.9,4.2-5.3,9.2c-1.4,3.1-2.4,5.9-2.8,8.3c-0.2,1-0.3,2-0.3,2.9c0,10.3,5.2,12.2,8.2,12.5v8.2h-6.8c-0.2-4.6-2.7-7.1-5.2-9.4c-1-1-2-1.9-2.8-3c-0.7-0.8-1.4-1.6-2-2.5C2,30.4,0.7,26.3,0.7,22c0-11.7,9.5-21.2,21.1-21.2h0.1C33.5,0.9,43,10.3,43,22C43,26.3,41.8,30.4,39.4,33.9z"/></g></g></g></svg>

