<svg version="1.1" id="Layer_103" xmlns="http://www.w3.org/2000/svg" xmlns:xlink="http://www.w3.org/1999/xlink" x="0px" y="0px" viewBox="0 0 64 64" style="enable-background:new 0 0 64 64" xml:space="preserve"><g><path d="M53.8,20.8c-1,0-1.9,0.4-2.6,1.1c-0.7,0.7-1.1,1.6-1.1,2.6v9.4c-0.4-0.3-0.9-0.4-1.5-0.4c-0.8,0-1.5,0.3-2.1,0.9l-8.8,9c-0.1,0.1-0.2,0.3-0.2,0.5v10H37c-0.4,0-0.7,0.4-0.7,0.8v7.4c0,0.2,0.1,0.4,0.2,0.5c0.1,0.1,0.3,0.2,0.5,0.2h14.3c0.5,0,0.8-0.4,0.8-0.8v-7.4c0-0.2-0.1-0.4-0.2-0.5c-0.1-0.1-0.3-0.2-0.5-0.2h-4.8v-1.5l10.7-10.9c0.1-0.1,0.2-0.3,0.2-0.5V24.5C57.5,22.5,55.9,20.8,53.8,20.8z M50.7,61.3H37.8v-5.9h0.5h7.5h0.1h4.8V61.3z M56.2,40.7L45.3,51.6c-0.1,0.1-0.2,0.3-0.2,0.5v1.8h-6H39v-9.8l8.6-8.7c0.3-0.3,0.7-0.5,1.1-0.5c0.4,0,0.7,0.1,1,0.4c0.1,0.1,0.1,0.2,0.2,0.3c0.3,0.6,0.2,1.4-0.3,1.9l-6,6c-0.1,0.1-0.2,0.3-0.2,0.5s0.1,0.4,0.2,0.5l0.6,0.6c0.3,0.3,0.8,0.3,1.1,0l6-6c1.3-1.3,1.5-3.2,0.6-4.7c0-0.2-0.1-0.3-0.2-0.4v-9.4c0-0.6,0.3-1.2,0.7-1.6c0.4-0.5,1-0.7,1.6-0.7c1.2,0,2.2,1,2.2,2.2V40.7z"/><path d="M26.9,53.9h-0.6v-10c0-0.2-0.1-0.4-0.2-0.5l-8.8-9c-0.5-0.6-1.3-0.9-2.1-0.9c-0.6,0-1.1,0.1-1.5,0.4v-9.4c0-1-0.4-1.9-1.1-2.6c-0.7-0.7-1.6-1.1-2.6-1.1c-2,0-3.7,1.6-3.7,3.7V41c0,0.2,0.1,0.4,0.2,0.5l10.8,11v1.4h-4.8c-0.2,0-0.4,0.1-0.5,0.2c-0.1,0.1-0.2,0.3-0.2,0.5V62c0,0.5,0.4,0.8,0.8,0.8H27c0.2,0,0.3-0.1,0.4-0.2c0.1-0.1,0.2-0.3,0.2-0.5v-7.4C27.6,54.2,27.3,53.9,26.9,53.9z M7.7,40.5V24.3c0-1.2,1-2.2,2.2-2.2c0.6,0,1.2,0.3,1.6,0.7c0.5,0.4,0.7,1,0.7,1.6V34c0,0.2-0.1,0.3-0.2,0.4c-0.9,1.5-0.7,3.4,0.6,4.7l6,6c0.3,0.3,0.8,0.3,1.1,0l0.6-0.6c0.1-0.1,0.2-0.3,0.2-0.5s-0.1-0.4-0.2-0.5l-6-6c-0.6-0.5-0.7-1.3-0.3-1.9c0-0.1,0.1-0.2,0.2-0.2c0.2-0.3,0.6-0.4,1-0.4c0.4,0,0.8,0.2,1.1,0.5l8.6,8.7v9.7h-6l-0.1-2c0-0.2-0.1-0.4-0.2-0.5L7.7,40.5z M26.2,61.2H13.3v-5.9h4.4c0.1,0.1,0.2,0.1,0.4,0.1h7.5c0.1,0,0.2,0,0.3-0.1h0.3V61.2z"/><path d="M42.4,25.4c0-1.1-0.1-2.2-0.3-3.4c-0.5-2.8-1.6-6.1-3.3-9.7C36,6.4,32.6,1.6,32.6,1.6c-0.1-0.2-0.4-0.3-0.6-0.3s-0.5,0.1-0.6,0.3c0,0-3.4,4.8-6.2,10.7c-1.7,3.6-2.8,6.8-3.3,9.7c-0.2,1.2-0.3,2.3-0.3,3.4c0,12.2,6.2,14.3,9.6,14.6v6c0,0.5,0.4,0.8,0.8,0.8s0.8-0.4,0.8-0.8v-6C36.2,39.7,42.4,37.6,42.4,25.4z M23.1,25.3c0-0.9,0.1-2,0.3-3.1c0.5-2.7,1.6-5.8,3.2-9.3c2-4.3,4.3-8,5.4-9.6c1.1,1.7,3.4,5.3,5.4,9.6c1.7,3.4,2.7,6.6,3.2,9.3c0.2,1.1,0.3,2.1,0.3,3.1c0,8.1-2.9,12.6-8.1,13.1v-5.6l6.1-6.1c0.3-0.3,0.3-0.8,0-1.1c-0.3-0.3-0.8-0.3-1.1,0l-5,5v-7.5l3.6-3.6c0.3-0.3,0.3-0.8,0-1.1c-0.3-0.3-0.8-0.3-1.1,0l-2.5,2.5v-8.5c0-0.5-0.3-0.8-0.8-0.8s-0.8,0.4-0.8,0.8v8.3l-2.3-2.3c-0.3-0.3-0.8-0.3-1.1,0c-0.3,0.3-0.3,0.8,0,1.1l3.4,3.4v7.5l-4.8-4.8c-0.3-0.3-0.8-0.3-1.1,0c-0.3,0.3-0.3,0.8,0,1.1l5.9,5.9v5.8C26,37.9,23.1,33.3,23.1,25.3z"/></g></svg>


