<svg version="1.1" id="Layer_101" xmlns="http://www.w3.org/2000/svg" xmlns:xlink="http://www.w3.org/1999/xlink" x="0px" y="0px" viewBox="0 0 64 64" style="enable-background:new 0 0 64 64" xml:space="preserve"><g><path d="M42.3,50.3c-0.2-0.4-0.6-0.5-1-0.3c-5.7,3.3-12.8,3.3-18.5,0c-1.5-0.8-2.8-1.8-3.9-3l1.4,0.4c0.4,0.1,0.8-0.1,0.9-0.5l1.2-4.5c0-0.2,0-0.4-0.1-0.6c-0.1-0.1-0.3-0.2-0.5-0.3l-11.5-3.1c-0.4-0.1-0.8,0.1-0.9,0.5L6.3,50.4c-0.1,0.4,0.1,0.8,0.5,0.9l4.5,1.2c0.2,0,0.4,0,0.6-0.1c0.1-0.1,0.2-0.3,0.3-0.5l0.6-2.4c1.9,2.4,4.2,4.4,6.9,5.9c3.8,2.2,8,3.3,12.3,3.3c4.2,0,8.5-1.1,12.4-3.2c0.2-0.1,0.4-0.3,0.4-0.5s0-0.4-0.1-0.6L42.3,50.3z M20.3,54.1c-2.9-1.7-5.4-3.9-7.3-6.7c-0.1-0.2-0.4-0.3-0.6-0.3c0,0,0,0-0.2-0.1c-0.3,0-0.5,0.2-0.6,0.5l-0.8,3.1l-3.1-0.8l2.7-10l10,2.7l-0.8,3.1l-2.8-0.7c-0.3-0.1-0.6,0-0.8,0.3s-0.2,0.6,0,0.9c1.6,2.1,3.6,3.9,5.9,5.2c5.9,3.4,13.2,3.5,19.3,0.3l1.6,2.8C35.8,58.2,27.2,58.1,20.3,54.1z"/><path d="M8.1,34.8h4.7c0.2,0,0.3-0.1,0.5-0.3c0.1-0.1,0.2-0.3,0.2-0.5c0-3.2,0.9-6.4,2.5-9.2c2.4-4.3,6.5-7.4,11.2-8.6L26.4,17c-0.1,0.1-0.2,0.3-0.2,0.5s0.1,0.4,0.2,0.5l3.3,3.4c0.3,0.3,0.8,0.3,1.1,0l8.4-8.4c0.1-0.1,0.2-0.3,0.2-0.5s-0.1-0.4-0.2-0.5l-8.4-8.4c-0.3-0.3-0.8-0.3-1.1,0l-3.3,3.3c-0.1,0.1-0.2,0.3-0.2,0.5c0,0.2,0.1,0.4,0.2,0.5l1.8,1.8c-7.4,1.1-13.9,5.5-17.6,12c-2.2,3.8-3.3,8.1-3.3,12.4C7.4,34.5,7.7,34.8,8.1,34.8z M11.9,22.4c3.8-6.5,10.5-10.8,18-11.5c0.3,0,0.5-0.2,0.6-0.5c0.1-0.3,0-0.6-0.2-0.8L28,7.3l2.4-2.2l7.3,7.3l-7.3,7.3l-2.3-2.3l2-2c0.2-0.3,0.2-0.6,0.1-0.9c-0.2-0.3-0.5-0.4-0.8-0.4c-6.2,0.8-11.6,4.4-14.7,9.8C13,26.8,12.1,30,12,33.2H8.8C8.9,29.4,10,25.7,11.9,22.4z"/><path d="M59.5,47.4l-1.2-4.5c0-0.2-0.1-0.4-0.3-0.5c-0.2-0.1-0.4-0.2-0.6-0.1L55,42.9c1.1-2.9,1.7-5.9,1.7-8.9c0-8.8-4.7-17-12.3-21.5c-0.3-0.2-0.8-0.1-1,0.3l-2.3,4.1c-0.1,0.2-0.2,0.4-0.1,0.6c0,0.2,0.1,0.4,0.3,0.5c7.3,4.2,10.8,12.8,8.6,20.8l-0.3-1.1c0-0.2-0.1-0.4-0.3-0.5c-0.2-0.1-0.4-0.1-0.6-0.1l-4.5,1.2c-0.2,0-0.4,0.1-0.5,0.3c-0.1,0.2-0.2,0.4-0.1,0.6l3.1,11.5c0.1,0.4,0.4,0.6,0.7,0.6c0,0,0.1,0,0.1,0.1L59,48.3C59.4,48.2,59.6,47.8,59.5,47.4z M47.9,49.7l-2.7-10l3.1-0.8l0.7,2.7c0.1,0.4,0.4,0.6,0.7,0.6s0.6-0.2,0.7-0.5c3.8-9,0.4-19.4-7.8-24.6l1.6-2.8c6.8,4.2,11,11.7,11,19.7c0,3.4-0.7,6.6-2.1,9.7C53,44,53,44.3,53.2,44.5s0.5,0.3,0.8,0.2l3.1-0.8l0.8,3.1L47.9,49.7z"/></g></svg>


