<svg version="1.1" id="Layer_1" xmlns="http://www.w3.org/2000/svg" xmlns:xlink="http://www.w3.org/1999/xlink" x="0px" y="0px" viewBox="0 0 64 64" style="enable-background:new 0 0 64 64" xml:space="preserve"><path d="M57.1,39c3.6-3.5,5.5-7.8,5.5-12.4C62.6,16,52.1,7.4,39.2,7.4c-12.9,0-23.4,8.6-23.4,19.2c0,10.6,10.5,19.2,23.4,19.2c2.6,0,5.2-0.4,7.7-1.1c1.8,1.6,4.9,3.6,10.1,4.9c0.1,0,0.3,0,0.4,0c0.5,0,0.9-0.2,1.2-0.6c0.4-0.5,0.5-1.1,0.3-1.7C57.9,44.8,57.2,41.8,57.1,39z M57.8,48.3c-0.1,0.1-0.2,0.2-0.4,0.1c-5.2-1.3-8.3-3.3-9.9-4.9c-0.1-0.1-0.3-0.2-0.4-0.2c-0.1,0-0.1,0-0.2,0c-2.5,0.7-5.1,1.1-7.6,1.1c-12.2,0-22.2-8.1-22.2-18s9.9-18,22.2-18c12.2,0,22.2,8.1,22.2,18c0,4.3-1.9,8.4-5.3,11.7c-0.1,0.1-0.2,0.3-0.2,0.5c0.1,3,0.8,6.3,2,9.1C57.9,48.1,57.8,48.3,57.8,48.3z M40.6,36.9c0,1.5-0.3,3.1-0.8,4.5c-0.1,0.2-0.3,0.4-0.6,0.4c-0.1,0-0.1,0-0.2,0c-0.3-0.1-0.5-0.5-0.4-0.8c0.5-1.3,0.7-2.7,0.7-4.1C39.4,28.7,31.1,22,21,22c-0.3,0-0.6-0.3-0.6-0.6s0.3-0.6,0.6-0.6C31.8,20.8,40.6,28.1,40.6,36.9z M33.8,48.3c0.2,0.3,0.1,0.6-0.2,0.8c-5.2,3.6-12.4,4.8-19,2.9c-1.5,1.3-4.1,3-8.5,4.1c-0.1,0-0.2,0-0.4,0c-0.4,0-0.8-0.2-1.1-0.5c-0.4-0.4-0.5-1-0.3-1.5C5.3,52,5.9,49.6,6,47.2c-3-2.9-4.6-6.5-4.6-10.3c0-6.5,4.8-12.4,12.1-14.9c0.3-0.1,0.7,0.1,0.8,0.4c0.1,0.3-0.1,0.7-0.4,0.8C7,25.5,2.6,30.9,2.6,36.9c0,3.5,1.6,6.9,4.4,9.6c0.1,0.1,0.2,0.3,0.2,0.5c-0.1,2.5-0.7,5.2-1.6,7.6c-0.1,0.1,0,0.3,0.1,0.3c0,0,0.1,0.1,0.3,0.1c4.4-1.1,6.9-2.8,8.2-4c0.2-0.1,0.4-0.2,0.6-0.1C21,52.7,28,51.6,33,48.2C33.2,48,33.6,48.1,33.8,48.3z"></path></svg>