<svg version="1.1" id="Layer_1" xmlns="http://www.w3.org/2000/svg" xmlns:xlink="http://www.w3.org/1999/xlink" x="0px" y="0px" viewBox="0 0 64 64" style="enable-background:new 0 0 64 64" xml:space="preserve"><path d="M54.4,32.5c-1.4-1.5-4-1.4-5.4,0L41.6,40c-0.1-0.6-0.4-1.2-0.9-1.7c-0.6-0.6-1.4-0.9-2.2-0.9l-13.6,0.1c-0.2,0-0.3,0.1-0.4,0.2l-7.8,7.8l-0.6-0.6c-0.2-0.2-0.6-0.2-0.8,0l-5.6,5.6c-0.1,0.1-0.2,0.3-0.2,0.4s0.1,0.3,0.2,0.4l11,11c0.1,0.1,0.3,0.2,0.4,0.2s0.3-0.1,0.4-0.2l5.6-5.6c0.1-0.1,0.2-0.3,0.2-0.4s-0.1-0.3-0.2-0.4l-3.9-3.9l1.4-1.4h16.8c0.2,0,0.3-0.1,0.4-0.2L54.4,38c0.7-0.7,1.1-1.7,1.1-2.7S55.2,33.2,54.4,32.5z M21,61.2L10.8,51l4.8-4.8l0.6,0.6c0,0,0,0,0,0l4.5,4.5l5.1,5.1L21,61.2z M53.6,37.1L41.2,49.5H24.3c-0.2,0-0.3,0.1-0.4,0.2l-1.5,1.5l-4.9-4.9l7.7-7.7l13.3-0.1c0.5,0,1,0.2,1.4,0.5c0.4,0.3,0.5,0.8,0.5,1.2c0,0.1,0,0.3-0.1,0.4c-0.2,0.8-1,1.4-1.9,1.4l-9.1,0c-0.2,0-0.3,0.1-0.4,0.2c-0.1,0.1-0.2,0.3-0.2,0.4v0.9c0,0.3,0.3,0.6,0.6,0.6l9.1,0c1.9,0,3.5-1.2,3.9-3c0-0.2,0.1-0.3,0.1-0.5l7.4-7.4c1-1,2.7-1,3.7,0c0,0,0,0,0,0c0.5,0.5,0.8,1.2,0.8,1.9C54.4,35.9,54.1,36.6,53.6,37.1z M32.5,34.6c6.4,0,11.5-5.2,11.5-11.5C44,16.9,33.4,2.3,33,1.6c-0.2-0.3-0.7-0.3-1,0c-0.5,0.6-11.1,15.2-11.1,21.4C20.9,29.4,26.1,34.6,32.5,34.6z M32.5,3c2.1,3,10.3,15,10.3,20c0,5.7-4.6,10.3-10.3,10.3c-5.7,0-10.3-4.6-10.3-10.3C22.1,18,30.4,6,32.5,3z M31,9.2l0.7-1c0.2-0.3,0.6-0.4,0.8-0.2c0.3,0.2,0.4,0.6,0.2,0.8l-0.7,1c-0.1,0.2-0.3,0.3-0.5,0.3c-0.1,0-0.2,0-0.3-0.1C30.9,9.8,30.8,9.4,31,9.2z M25.2,21.4c-0.3-0.1-0.5-0.5-0.4-0.8c1-2.9,3.2-6.7,4.8-9.4c0.2-0.3,0.5-0.4,0.8-0.2c0.3,0.2,0.4,0.5,0.2,0.8C29.1,14.5,27,18.2,26,21c-0.1,0.2-0.3,0.4-0.6,0.4C25.4,21.4,25.3,21.4,25.2,21.4z"></path></svg>