<?xml version="1.0" encoding="utf-8"?>
<!-- Generator: Adobe Illustrator 25.0.1, SVG Export Plug-In . SVG Version: 6.00 Build 0)  -->
<svg version="1.1" id="Layer_1" xmlns="http://www.w3.org/2000/svg" xmlns:xlink="http://www.w3.org/1999/xlink" x="0px" y="0px" width="478" height="100"
	 viewBox="0 0 478 100" style="enable-background:new 0 0 478 100;" xml:space="preserve">
<style type="text/css">
	.st0{fill:url(#SVGID_1_);}
	.st1{fill:#FFFFFF;}
	.st2{fill:#00A689;}
	.st3{fill:#231F20;}
	.st4{fill:#00A68A;}
</style>
<g>
	<g>
		<radialGradient id="SVGID_1_" cx="71.2007" cy="17.1299" r="91.0073" gradientUnits="userSpaceOnUse">
			<stop  offset="0.0555" style="stop-color:#00A68A"/>
			<stop  offset="0.3091" style="stop-color:#15AD92"/>
			<stop  offset="0.7142" style="stop-color:#3FBBA2"/>
			<stop  offset="0.8277" style="stop-color:#2894A9"/>
			<stop  offset="0.9389" style="stop-color:#1473AF"/>
			<stop  offset="1" style="stop-color:#0D67B1"/>
		</radialGradient>
		<circle class="st0" cx="50.02" cy="50.1" r="49.9"/>
		<circle class="st1" cx="50.02" cy="50.1" r="42.32"/>
	</g>
	<g>
		<path class="st2" d="M85.36,47.5l-18.05-0.03c-0.64,0-1.18,0.43-1.18,1.18l-0.01,4.62c0,0.64,0.54,1.08,1.18,1.08l11.71,0.02
			c-1.52,5.69-5.82,8.91-11.95,8.9c-6.88-0.01-11.81-5.5-11.8-13.13c0.01-7.63,4.97-13.1,11.85-13.09c4.08,0.01,6.88,1.3,9.77,4.21
			c0.54,0.54,1.18,0.54,1.61,0l3.23-3.54c0.43-0.54,0.43-1.18,0-1.61c-4.08-4.09-8.69-5.93-14.5-5.94
			c-11.18-0.02-19.25,8.35-19.27,19.95c-0.02,11.5,8.02,20,19.09,20.03c11.28,0.02,19.47-8.45,19.49-19.84l0-1.61
			C86.54,48.04,86.12,47.5,85.36,47.5"/>
		<path class="st2" d="M18.95,57.05L15.5,60.8c-0.43,0.43-0.43,1.07,0,1.5c4.5,5.38,9.44,7.76,15.89,7.77
			c8.6,0.02,14.52-4.49,14.53-11.26c0.01-5.7-2.99-9.14-9.22-10.87L29.83,46c-4.3-1.19-6.01-2.7-6.01-4.85
			c0.01-2.69,2.8-4.51,7.21-4.5c3.22,0.01,5.91,1.41,8.37,4.1c0.43,0.65,1.18,0.65,1.61,0l3.34-3.43c0.43-0.54,0.43-1.18,0-1.61
			c-3.22-3.66-7.83-5.6-13.31-5.61c-8.27-0.02-14.19,4.59-14.21,11.15c-0.01,4.94,3.64,9.03,9.76,10.77l6.44,1.84
			c4.08,1.19,5.69,2.59,5.69,4.95c-0.01,2.69-2.59,4.4-6.89,4.39c-4.73-0.01-8.38-2.06-11.27-6.04
			C20.13,56.62,19.38,56.51,18.95,57.05"/>
	</g>
	<g>
		<path class="st3" d="M112.48,69.89c0-6.57,0-19.68,0-39.34c2.78,0,8.33,0,16.67,0c1.8,0,3.48,0.38,5.03,1.14
			c1.52,0.76,2.83,1.77,3.95,3.03c1.12,1.23,1.98,2.62,2.6,4.17c0.61,1.59,0.92,3.17,0.92,4.76c0,1.66-0.29,3.27-0.87,4.82
			c-0.58,1.59-1.41,3-2.49,4.22c-1.08,1.19-2.38,2.16-3.9,2.92c-1.52,0.72-3.17,1.08-4.98,1.08c-2.06,0-5.16,0-9.31,0
			c0,2.2,0,6.6,0,13.2C118.85,69.89,116.3,69.89,112.48,69.89z M120.11,49.98c1.48,0,4.44,0,8.87,0c1.41,0,2.58-0.56,3.52-1.68
			c0.94-1.15,1.41-2.71,1.41-4.65c0-1.01-0.14-1.91-0.43-2.71c-0.29-0.79-0.69-1.46-1.19-2c-0.47-0.58-1.03-0.99-1.68-1.24
			c-0.65-0.29-1.3-0.43-1.95-0.43c-1.91,0-4.76,0-8.55,0C120.11,39.39,120.11,43.63,120.11,49.98z"/>
		<path class="st3" d="M163.46,70.16c-2.89,0-5.5-0.56-7.85-1.68c-2.35-1.12-4.37-2.62-6.06-4.49c-1.66-1.88-2.96-4-3.9-6.39
			c-0.9-2.42-1.35-4.89-1.35-7.41c0-2.6,0.49-5.1,1.46-7.52c0.97-2.38,2.31-4.51,4-6.39c1.73-1.84,3.79-3.3,6.17-4.38
			c2.34-1.08,4.91-1.62,7.68-1.62c2.85,0,5.45,0.58,7.79,1.73c2.34,1.16,4.35,2.69,6.01,4.6c1.66,1.88,2.96,4,3.9,6.39
			c0.9,2.42,1.35,4.87,1.35,7.36c0,2.6-0.47,5.09-1.41,7.47c-0.97,2.38-2.31,4.51-4,6.39c-1.7,1.8-3.73,3.25-6.12,4.33
			C168.8,69.62,166.24,70.16,163.46,70.16z M152.05,50.2c0,1.73,0.25,3.39,0.76,4.98c0.54,1.59,1.28,2.98,2.22,4.17
			c1.01,1.23,2.22,2.22,3.63,2.98c1.44,0.72,3.07,1.08,4.87,1.08c1.84,0,3.48-0.38,4.92-1.14c1.41-0.76,2.6-1.77,3.57-3.03
			c0.97-1.23,1.71-2.63,2.22-4.22c0.5-1.55,0.76-3.16,0.76-4.82c0-1.7-0.27-3.34-0.81-4.92c-0.54-1.59-1.3-2.98-2.27-4.17
			c-0.97-1.23-2.16-2.2-3.57-2.92c-1.44-0.72-3.05-1.08-4.82-1.08c-1.84,0-3.48,0.38-4.92,1.14c-1.44,0.76-2.65,1.77-3.63,3.03
			c-0.94,1.19-1.66,2.58-2.16,4.17C152.3,46.99,152.05,48.57,152.05,50.2z"/>
		<path class="st3" d="M209.92,40.83c-0.25-0.25-0.72-0.6-1.41-1.03c-0.69-0.43-1.53-0.87-2.54-1.3c-0.94-0.43-1.98-0.79-3.14-1.08
			c-1.16-0.29-2.33-0.43-3.52-0.43c-2.09,0-3.66,0.38-4.71,1.14c-1.01,0.79-1.51,1.89-1.51,3.3c0,0.79,0.18,1.46,0.54,2
			c0.4,0.54,0.97,1.01,1.73,1.41c0.72,0.4,1.64,0.78,2.76,1.14c1.15,0.32,2.47,0.67,3.95,1.03c1.91,0.51,3.64,1.06,5.2,1.68
			c1.59,0.58,2.92,1.32,4,2.22c1.08,0.87,1.93,1.93,2.54,3.19c0.58,1.23,0.87,2.74,0.87,4.55c0,2.09-0.4,3.9-1.19,5.41
			c-0.79,1.48-1.88,2.69-3.25,3.63c-1.34,0.94-2.87,1.61-4.6,2c-1.77,0.43-3.61,0.65-5.52,0.65c-2.96,0-5.88-0.43-8.77-1.3
			c-2.89-0.9-5.47-2.16-7.74-3.79c0.72-1.48,1.84-3.68,3.36-6.6c0.32,0.32,0.92,0.76,1.79,1.3c0.87,0.54,1.89,1.08,3.08,1.62
			c1.19,0.54,2.51,0.99,3.95,1.35c1.44,0.36,2.92,0.54,4.44,0.54c4.18,0,6.28-1.35,6.28-4.06c0-0.83-0.24-1.53-0.7-2.11
			c-0.47-0.61-1.16-1.14-2.06-1.57c-0.87-0.43-1.93-0.85-3.19-1.24c-1.26-0.36-2.67-0.76-4.22-1.19c-1.88-0.54-3.52-1.1-4.92-1.68
			c-1.37-0.61-2.53-1.33-3.46-2.16c-0.9-0.83-1.59-1.8-2.06-2.92c-0.47-1.08-0.7-2.38-0.7-3.9c0-1.98,0.38-3.75,1.14-5.3
			c0.72-1.55,1.73-2.85,3.03-3.9c1.33-1.01,2.87-1.79,4.6-2.33c1.73-0.54,3.59-0.81,5.57-0.81c2.78,0,5.34,0.43,7.68,1.3
			c2.31,0.87,4.33,1.89,6.06,3.08C212.55,36.04,211.43,38.09,209.92,40.83z"/>
		<path class="st3" d="M243.85,40.83c-0.25-0.25-0.72-0.6-1.41-1.03c-0.69-0.43-1.53-0.87-2.54-1.3c-0.94-0.43-1.98-0.79-3.14-1.08
			c-1.16-0.29-2.33-0.43-3.52-0.43c-2.09,0-3.66,0.38-4.71,1.14c-1.01,0.79-1.51,1.89-1.51,3.3c0,0.79,0.18,1.46,0.54,2
			c0.4,0.54,0.97,1.01,1.73,1.41c0.72,0.4,1.64,0.78,2.76,1.14c1.15,0.32,2.47,0.67,3.95,1.03c1.91,0.51,3.64,1.06,5.2,1.68
			c1.59,0.58,2.92,1.32,4,2.22c1.08,0.87,1.93,1.93,2.54,3.19c0.58,1.23,0.87,2.74,0.87,4.55c0,2.09-0.4,3.9-1.19,5.41
			c-0.79,1.48-1.88,2.69-3.25,3.63c-1.34,0.94-2.87,1.61-4.6,2c-1.77,0.43-3.61,0.65-5.52,0.65c-2.96,0-5.88-0.43-8.77-1.3
			c-2.89-0.9-5.47-2.16-7.74-3.79c0.72-1.48,1.84-3.68,3.36-6.6c0.32,0.32,0.92,0.76,1.79,1.3c0.87,0.54,1.89,1.08,3.08,1.62
			c1.19,0.54,2.51,0.99,3.95,1.35c1.44,0.36,2.92,0.54,4.44,0.54c4.18,0,6.28-1.35,6.28-4.06c0-0.83-0.24-1.53-0.7-2.11
			c-0.47-0.61-1.16-1.14-2.06-1.57c-0.87-0.43-1.93-0.85-3.19-1.24c-1.26-0.36-2.67-0.76-4.22-1.19c-1.88-0.54-3.52-1.1-4.92-1.68
			c-1.37-0.61-2.53-1.33-3.46-2.16c-0.9-0.83-1.59-1.8-2.06-2.92c-0.47-1.08-0.7-2.38-0.7-3.9c0-1.98,0.38-3.75,1.14-5.3
			c0.72-1.55,1.73-2.85,3.03-3.9c1.33-1.01,2.87-1.79,4.6-2.33c1.73-0.54,3.59-0.81,5.57-0.81c2.78,0,5.34,0.43,7.68,1.3
			c2.31,0.87,4.33,1.89,6.06,3.08C246.49,36.04,245.37,38.09,243.85,40.83z"/>
		<path class="st3" d="M253.53,69.89c0-6.57,0-19.68,0-39.34c1.26,0,3.81,0,7.63,0c0,6.57,0,19.68,0,39.34
			C259.89,69.89,257.35,69.89,253.53,69.89z"/>
		<path class="st3" d="M299.87,59.77c0,1.66-0.34,3.12-1.03,4.38c-0.65,1.23-1.57,2.27-2.76,3.14c-1.16,0.83-2.49,1.48-4,1.95
			c-1.55,0.43-3.19,0.65-4.92,0.65c-4.22,0-10.55,0-18.99,0c0-6.57,0-19.68,0-39.34c3.5,0,10.52,0,21.05,0
			c1.37,0,2.62,0.29,3.73,0.87c1.08,0.61,2.02,1.39,2.81,2.33c0.76,0.94,1.35,2,1.79,3.19c0.43,1.23,0.65,2.44,0.65,3.63
			c0,1.95-0.49,3.75-1.46,5.41c-0.94,1.7-2.35,2.94-4.22,3.73c2.27,0.69,4.06,1.88,5.36,3.57C299.2,55.01,299.87,57.18,299.87,59.77
			z M275.79,37.1c0,1.66,0,4.96,0,9.9c1.7,0,5.1,0,10.23,0c1.26,0,2.35-0.43,3.25-1.3c0.94-0.9,1.41-2.13,1.41-3.68
			c0-1.52-0.43-2.72-1.3-3.63c-0.83-0.87-1.84-1.3-3.03-1.3C283.99,37.1,280.47,37.1,275.79,37.1z M292.13,58.31
			c0-0.68-0.11-1.35-0.32-2c-0.25-0.65-0.58-1.23-0.97-1.73c-0.43-0.47-0.92-0.85-1.46-1.14c-0.54-0.25-1.15-0.38-1.84-0.38
			c-2.6,0-6.51,0-11.74,0c0,1.73,0,5.18,0,10.34c1.91,0,5.7,0,11.36,0c0.68,0,1.33-0.13,1.95-0.38c0.61-0.25,1.15-0.6,1.62-1.03
			c0.43-0.5,0.78-1.06,1.03-1.68C292,59.67,292.13,59,292.13,58.31z"/>
		<path class="st3" d="M304.51,69.89c0-6.57,0-19.68,0-39.34c1.26,0,3.81,0,7.63,0c0,6.57,0,19.68,0,39.34
			C310.88,69.89,308.34,69.89,304.51,69.89z"/>
		<path class="st3" d="M319.39,69.89c0-6.57,0-19.68,0-39.34c1.26,0,3.81,0,7.63,0c0,5.45,0,16.33,0,32.63c3.36,0,10.05,0,20.08,0
			c0,1.12,0,3.36,0,6.71C342.48,69.89,333.24,69.89,319.39,69.89z"/>
		<path class="st3" d="M352.03,69.89c0-6.57,0-19.68,0-39.34c1.26,0,3.81,0,7.63,0c0,6.57,0,19.68,0,39.34
			C358.39,69.89,355.85,69.89,352.03,69.89z"/>
		<path class="st3" d="M397.05,37.26c-2.13,0-6.33,0-12.61,0c0,5.45,0,16.33,0,32.63c-1.26,0-3.79,0-7.58,0c0-5.45,0-16.32,0-32.63
			c-2.09,0-6.3,0-12.61,0c0-1.12,0-3.36,0-6.71c5.48,0,16.41,0,32.79,0C397.05,31.67,397.05,33.91,397.05,37.26z"/>
		<path class="st3" d="M401.23,69.89c0-6.57,0-19.68,0-39.34c1.26,0,3.81,0,7.63,0c0,6.57,0,19.68,0,39.34
			C407.6,69.89,405.06,69.89,401.23,69.89z"/>
		<path class="st3" d="M443.46,63.18c0,1.12,0,3.36,0,6.71c-4.58,0-13.69,0-27.33,0c0-6.57,0-19.68,0-39.34c4.47,0,13.4,0,26.79,0
			c0,1.12,0,3.36,0,6.71c-3.18,0-9.56,0-19.16,0c0,1.59,0,4.74,0,9.47c2.78,0,8.3,0,16.56,0c0,1.05,0,3.12,0,6.22
			c-2.74,0-8.26,0-16.56,0c0,1.7,0,5.11,0,10.23C427.04,63.18,433.61,63.18,443.46,63.18z"/>
		<path class="st3" d="M473.12,40.83c-0.25-0.25-0.72-0.6-1.41-1.03c-0.69-0.43-1.53-0.87-2.54-1.3c-0.94-0.43-1.98-0.79-3.14-1.08
			c-1.16-0.29-2.33-0.43-3.52-0.43c-2.09,0-3.66,0.38-4.71,1.14c-1.01,0.79-1.51,1.89-1.51,3.3c0,0.79,0.18,1.46,0.54,2
			c0.4,0.54,0.97,1.01,1.73,1.41c0.72,0.4,1.64,0.78,2.76,1.14c1.15,0.32,2.47,0.67,3.95,1.03c1.91,0.51,3.64,1.06,5.2,1.68
			c1.59,0.58,2.92,1.32,4,2.22c1.08,0.87,1.93,1.93,2.54,3.19c0.58,1.23,0.87,2.74,0.87,4.55c0,2.09-0.4,3.9-1.19,5.41
			c-0.79,1.48-1.88,2.69-3.25,3.63c-1.34,0.94-2.87,1.61-4.6,2c-1.77,0.43-3.61,0.65-5.52,0.65c-2.96,0-5.88-0.43-8.77-1.3
			c-2.89-0.9-5.47-2.16-7.74-3.79c0.72-1.48,1.84-3.68,3.36-6.6c0.32,0.32,0.92,0.76,1.79,1.3c0.87,0.54,1.89,1.08,3.08,1.62
			c1.19,0.54,2.51,0.99,3.95,1.35c1.44,0.36,2.92,0.54,4.44,0.54c4.18,0,6.28-1.35,6.28-4.06c0-0.83-0.24-1.53-0.7-2.11
			c-0.47-0.61-1.16-1.14-2.06-1.57c-0.87-0.43-1.93-0.85-3.19-1.24c-1.26-0.36-2.67-0.76-4.22-1.19c-1.88-0.54-3.52-1.1-4.92-1.68
			c-1.37-0.61-2.53-1.33-3.46-2.16c-0.9-0.83-1.59-1.8-2.06-2.92c-0.47-1.08-0.7-2.38-0.7-3.9c0-1.98,0.38-3.75,1.14-5.3
			c0.72-1.55,1.73-2.85,3.03-3.9c1.33-1.01,2.87-1.79,4.6-2.33c1.73-0.54,3.59-0.81,5.57-0.81c2.78,0,5.34,0.43,7.68,1.3
			c2.31,0.87,4.33,1.89,6.06,3.08C475.75,36.04,474.63,38.09,473.12,40.83z"/>
	</g>
	<g>
		<g>
			<path class="st4" d="M110.45,9.41c0-1.14,0.21-2.27,0.62-3.4c0.41-1.12,1.02-2.13,1.81-3.01c0.79-0.9,1.77-1.62,2.93-2.15
				c1.14-0.55,2.45-0.83,3.91-0.83c1.73,0,3.23,0.38,4.51,1.14c1.26,0.76,2.2,1.75,2.83,2.98c-0.62,0.43-1.56,1.07-2.83,1.92
				c-0.24-0.52-0.54-0.96-0.91-1.32c-0.35-0.36-0.73-0.66-1.14-0.88c-0.4-0.21-0.82-0.36-1.27-0.47c-0.43-0.09-0.86-0.13-1.3-0.13
				c-0.92,0-1.72,0.18-2.41,0.54c-0.67,0.38-1.24,0.87-1.71,1.48c-0.43,0.57-0.77,1.24-1.01,2c-0.22,0.74-0.34,1.49-0.34,2.23
				c0,0.85,0.13,1.65,0.39,2.41c0.28,0.78,0.65,1.45,1.11,2.02c0.5,0.59,1.1,1.06,1.79,1.43c0.67,0.35,1.42,0.52,2.23,0.52
				c0.43,0,0.87-0.05,1.32-0.16c0.47-0.1,0.9-0.27,1.3-0.49c0.43-0.24,0.83-0.54,1.19-0.91c0.35-0.36,0.62-0.79,0.83-1.3
				c0.67,0.38,1.68,0.95,3.01,1.71c-0.29,0.71-0.73,1.33-1.3,1.87c-0.55,0.55-1.18,1.01-1.89,1.37c-0.69,0.38-1.43,0.67-2.23,0.86
				c-0.79,0.19-1.57,0.28-2.33,0.28c-1.35,0-2.58-0.28-3.68-0.86c-1.12-0.55-2.09-1.29-2.9-2.2c-0.79-0.92-1.42-1.95-1.87-3.11
				C110.67,11.8,110.45,10.62,110.45,9.41z"/>
			<path class="st4" d="M131.55,18.97c0-3.14,0-9.43,0-18.84c0.6,0,1.82,0,3.65,0c0,3.15,0,9.43,0,18.84
				C134.6,18.97,133.38,18.97,131.55,18.97z"/>
			<path class="st4" d="M154.36,3.34c-1.02,0-3.03,0-6.04,0c0,2.61,0,7.82,0,15.63c-0.61,0-1.81,0-3.63,0c0-2.61,0-7.82,0-15.63
				c-1,0-3.02,0-6.04,0c0-0.54,0-1.61,0-3.21c2.63,0,7.86,0,15.71,0C154.36,0.67,154.36,1.74,154.36,3.34z"/>
			<path class="st4" d="M160.36,0.13c0.76,1.52,2.31,4.55,4.64,9.07c0.78-1.5,2.35-4.53,4.72-9.07c0.66,0,1.98,0,3.97,0
				c-1.14,2.04-3.42,6.13-6.84,12.26c0,1.11,0,3.3,0,6.58c-0.62,0-1.84,0-3.65,0c0-1.11,0-3.32,0-6.64
				c-1.14-2.04-3.41-6.11-6.82-12.21C157.02,0.13,158.35,0.13,160.36,0.13z"/>
			<path class="st4" d="M194.41,19.1c-1.38,0-2.64-0.27-3.76-0.8c-1.12-0.54-2.09-1.25-2.9-2.15c-0.8-0.9-1.42-1.92-1.87-3.06
				c-0.43-1.16-0.65-2.34-0.65-3.55c0-1.24,0.23-2.45,0.7-3.6c0.47-1.14,1.11-2.16,1.92-3.06c0.83-0.88,1.81-1.58,2.95-2.1
				c1.12-0.52,2.35-0.78,3.68-0.78c1.36,0,2.61,0.28,3.73,0.83c1.12,0.55,2.08,1.29,2.88,2.2c0.79,0.9,1.42,1.92,1.87,3.06
				c0.43,1.16,0.65,2.33,0.65,3.53c0,1.24-0.22,2.44-0.67,3.58c-0.47,1.14-1.11,2.16-1.92,3.06c-0.81,0.86-1.79,1.56-2.93,2.07
				C196.97,18.84,195.74,19.1,194.41,19.1z M188.94,9.54c0,0.83,0.12,1.62,0.36,2.38c0.26,0.76,0.61,1.43,1.06,2
				c0.48,0.59,1.06,1.06,1.74,1.43c0.69,0.35,1.47,0.52,2.33,0.52c0.88,0,1.67-0.18,2.36-0.54c0.67-0.36,1.24-0.85,1.71-1.45
				c0.47-0.59,0.82-1.26,1.06-2.02c0.24-0.74,0.36-1.51,0.36-2.31c0-0.81-0.13-1.6-0.39-2.36c-0.26-0.76-0.62-1.43-1.09-2
				c-0.47-0.59-1.04-1.05-1.71-1.4c-0.69-0.35-1.46-0.52-2.31-0.52c-0.88,0-1.67,0.18-2.36,0.54c-0.69,0.36-1.27,0.85-1.74,1.45
				c-0.45,0.57-0.79,1.24-1.04,2C189.06,8,188.94,8.76,188.94,9.54z"/>
			<path class="st4" d="M207.4,18.97c0-3.14,0-9.43,0-18.84c2.11,0,6.32,0,12.65,0c0,0.54,0,1.61,0,3.21c-1.5,0-4.5,0-8.99,0
				c0,0.81,0,2.43,0,4.85c1.24,0,3.74,0,7.49,0c0,0.5,0,1.49,0,2.98c-1.24,0-3.74,0-7.49,0c0,1.3,0,3.9,0,7.8
				C210.45,18.97,209.23,18.97,207.4,18.97z"/>
			<path class="st4" d="M237.62,18.3c-0.57-0.26-1.11-0.57-1.61-0.93c-0.48-0.36-0.92-0.78-1.32-1.24
				c-0.41-0.45-0.78-0.93-1.09-1.45c-0.33-0.5-0.6-1.04-0.83-1.61c-0.24-0.59-0.41-1.18-0.52-1.79c-0.1-0.6-0.16-1.22-0.16-1.84
				c0-0.6,0.05-1.2,0.16-1.79c0.1-0.59,0.26-1.17,0.47-1.74c0.22-0.57,0.49-1.11,0.8-1.61c0.31-0.48,0.67-0.95,1.06-1.4
				c0.4-0.43,0.84-0.82,1.32-1.17c0.47-0.36,0.98-0.67,1.55-0.93c0.55-0.28,1.14-0.48,1.76-0.6c0.64-0.14,1.3-0.21,2-0.21
				c0.81,0,1.57,0.09,2.28,0.26c0.69,0.17,1.35,0.44,1.97,0.8c0.6,0.35,1.15,0.76,1.63,1.24c0.5,0.48,0.92,1.04,1.27,1.66
				c-0.64,0.52-1.6,1.29-2.88,2.31c-0.07-0.14-0.16-0.29-0.26-0.44c-0.1-0.16-0.22-0.32-0.34-0.49c-0.12-0.17-0.26-0.35-0.41-0.52
				c-0.16-0.16-0.33-0.31-0.52-0.47c-0.17-0.16-0.37-0.3-0.6-0.44c-0.21-0.12-0.43-0.23-0.67-0.34c-0.24-0.1-0.5-0.18-0.78-0.23
				c-0.29-0.05-0.6-0.08-0.91-0.08c-0.43,0-0.83,0.04-1.19,0.13c-0.38,0.09-0.73,0.22-1.04,0.39c-0.33,0.19-0.63,0.41-0.91,0.65
				c-0.28,0.24-0.53,0.51-0.75,0.8c-0.22,0.28-0.42,0.59-0.6,0.93c-0.17,0.35-0.32,0.7-0.44,1.06c-0.12,0.4-0.21,0.79-0.26,1.17
				c-0.05,0.38-0.08,0.76-0.08,1.14c0,0.38,0.03,0.76,0.08,1.14c0.05,0.36,0.13,0.74,0.23,1.14c0.1,0.36,0.24,0.72,0.41,1.06
				c0.17,0.33,0.36,0.64,0.57,0.93c0.21,0.31,0.45,0.59,0.73,0.83c0.28,0.24,0.59,0.47,0.93,0.67c0.33,0.17,0.68,0.31,1.06,0.41
				c0.36,0.09,0.77,0.13,1.22,0.13c0.29,0,0.59-0.03,0.88-0.08c0.28-0.05,0.55-0.12,0.83-0.21c0.28-0.1,0.54-0.22,0.78-0.36
				c0.24-0.14,0.47-0.29,0.7-0.47c0.21-0.17,0.4-0.35,0.57-0.54c0.17-0.21,0.34-0.41,0.49-0.62c0.14-0.21,0.26-0.43,0.36-0.67
				c0.09-0.22,0.16-0.46,0.23-0.7c-0.92,0-2.29,0-4.12,0c0-0.71,0-1.77,0-3.19c1.8,0,4.49,0,8.09,0c0,0.02,0,0.04,0,0.08
				c0,0.05,0,0.12,0,0.21c0,0.1,0,0.2,0,0.28c-0.02,0.1-0.03,0.21-0.03,0.31s0,0.2,0,0.29c0,0.1,0,0.2,0,0.28c0,0.1,0,0.18,0,0.23
				c0,0.05,0,0.09,0,0.1c-0.04,0.55-0.11,1.1-0.23,1.63c-0.1,0.52-0.26,1.03-0.47,1.53c-0.21,0.52-0.46,0.99-0.75,1.43
				c-0.28,0.45-0.6,0.86-0.98,1.24c-0.36,0.38-0.76,0.72-1.19,1.01c-0.45,0.29-0.92,0.56-1.43,0.8c-0.52,0.22-1.05,0.39-1.61,0.49
				c-0.57,0.1-1.16,0.16-1.76,0.16c-0.67,0-1.32-0.07-1.94-0.21C238.78,18.78,238.19,18.58,237.62,18.3z"/>
			<path class="st4" d="M253.98,18.97c0-3.14,0-9.43,0-18.84c1.38,0,4.16,0,8.32,0c0.86,0,1.67,0.18,2.41,0.54
				c0.73,0.36,1.36,0.85,1.89,1.45c0.54,0.59,0.95,1.25,1.24,2c0.31,0.76,0.47,1.52,0.47,2.28c0,1.21-0.31,2.32-0.93,3.32
				c-0.61,1-1.43,1.73-2.46,2.18c0.95,1.57,2.39,3.93,4.3,7.08c-0.69,0-2.07,0-4.12,0c-0.64-1.05-1.93-3.16-3.86-6.32
				c-0.59,0-1.79,0-3.6,0c0,1.05,0,3.16,0,6.32C257.03,18.97,255.81,18.97,253.98,18.97z M257.64,9.44c0.76,0,2.29,0,4.59,0
				c0.35,0,0.67-0.08,0.96-0.23c0.28-0.16,0.53-0.36,0.75-0.62c0.21-0.29,0.37-0.62,0.49-0.98c0.12-0.38,0.18-0.78,0.18-1.19
				c0-0.45-0.07-0.86-0.21-1.22c-0.14-0.38-0.33-0.7-0.57-0.96c-0.24-0.29-0.52-0.51-0.83-0.65c-0.29-0.16-0.6-0.23-0.93-0.23
				c-0.98,0-2.46,0-4.43,0C257.64,4.36,257.64,6.39,257.64,9.44z"/>
			<path class="st4" d="M286.02,15.76c0,0.54,0,1.61,0,3.21c-2.19,0-6.56,0-13.09,0c0-3.14,0-9.43,0-18.84c2.14,0,6.42,0,12.83,0
				c0,0.54,0,1.61,0,3.21c-1.52,0-4.58,0-9.18,0c0,0.76,0,2.27,0,4.54c1.33,0,3.97,0,7.93,0c0,0.5,0,1.49,0,2.98
				c-1.31,0-3.96,0-7.93,0c0,0.81,0,2.45,0,4.9C278.16,15.76,281.31,15.76,286.02,15.76z"/>
			<path class="st4" d="M304.02,15.76c0,0.54,0,1.61,0,3.21c-2.19,0-6.56,0-13.09,0c0-3.14,0-9.43,0-18.84c2.14,0,6.42,0,12.83,0
				c0,0.54,0,1.61,0,3.21c-1.52,0-4.58,0-9.18,0c0,0.76,0,2.27,0,4.54c1.33,0,3.97,0,7.93,0c0,0.5,0,1.49,0,2.98
				c-1.31,0-3.96,0-7.93,0c0,0.81,0,2.45,0,4.9C296.16,15.76,299.3,15.76,304.02,15.76z"/>
			<path class="st4" d="M312.58,6.89c0,2.02,0,6.05,0,12.08c-0.6,0-1.82,0-3.65,0c0-3.14,0-9.43,0-18.84c0.47,0,1.41,0,2.82,0
				c1.64,2.06,4.92,6.18,9.82,12.36c0-2.06,0-6.17,0-12.34c0.62,0,1.85,0,3.68,0c0,3.13,0,9.4,0,18.82c-0.5,0-1.49,0-2.98,0
				C320.65,16.97,317.42,12.94,312.58,6.89z"/>
		</g>
	</g>
</g>
</svg>
