<?xml version="1.0" encoding="utf-8"?>
<!-- Generator: Adobe Illustrator 24.2.3, SVG Export Plug-In . SVG Version: 6.00 Build 0)  -->
<svg version="1.1" xmlns="http://www.w3.org/2000/svg" xmlns:xlink="http://www.w3.org/1999/xlink" x="0px" y="0px"
	 viewBox="0 0 932.3 250.74" style="enable-background:new 0 0 932.3 250.74;" xml:space="preserve">
<style type="text/css">
	.st0{display:none;}
	.st1{display:inline;fill:#53C3F1;}
	.st2{display:inline;fill:#F3A928;}
	.st3{display:inline;fill:#FFE900;}
	.st4{display:none;fill:#E30613;}
	.st5{fill:#009C81;}
	.st6{display:inline;opacity:0.41;fill:none;stroke:#009FE3;stroke-width:0.9168;stroke-miterlimit:10;}
	.st7{display:inline;opacity:0.2;}
</style>
<g id="Logo">
	<g class="st0">
		<ellipse class="st1" cx="-57.5" cy="-2150.86" rx="8.53" ry="5.58"/>
		<ellipse class="st2" cx="-30.93" cy="-2151.01" rx="8.53" ry="6.44"/>
		<circle class="st1" cx="-83.35" cy="-2102.71" r="8.35"/>
		<circle class="st2" cx="-54.63" cy="-2102.71" r="8.35"/>
		<ellipse class="st3" cx="-26.36" cy="-2108.34" rx="8.35" ry="5.37"/>
		<ellipse class="st1" cx="46.3" cy="-2108.34" rx="8.35" ry="5.37"/>
		<ellipse class="st3" cx="22.32" cy="-2151.95" rx="8.35" ry="6.31"/>
	</g>
	<g class="st0">
		<circle class="st1" cx="-18.27" cy="-2423.02" r="8.53"/>
		<circle class="st3" cx="5.29" cy="-2378.85" r="8.35"/>
		<circle class="st2" cx="-79.13" cy="-2380.17" r="8.35"/>
	</g>
	<circle class="st4" cx="138.15" cy="-3133.72" r="41.45"/>
	<circle class="st4" cx="339.62" cy="-3133.72" r="41.45"/>
	<g>
		<path class="st5" d="M102.68,22.69C45.97,22.69,0,68.66,0,125.37s45.97,102.68,102.68,102.68c56.71,0,102.68-45.97,102.68-102.68
			S159.39,22.69,102.68,22.69z M102.68,212.45c-48.09,0-87.08-38.99-87.08-87.08c0-48.09,38.99-87.08,87.08-87.08
			c48.09,0,87.08,38.99,87.08,87.08C189.76,173.46,150.77,212.45,102.68,212.45z"/>
		<g>
			<g>
				<path class="st5" d="M175.41,120.02l-37.15-0.07c-1.33,0-2.43,0.88-2.44,2.43l-0.02,9.51c0,1.33,1.1,2.21,2.43,2.22l24.1,0.05
					c-3.12,11.71-11.98,18.33-24.58,18.31c-14.15-0.03-24.3-11.32-24.27-27.03c0.03-15.7,10.22-26.96,24.38-26.93
					c8.4,0.02,14.15,2.68,20.11,8.66c1.1,1.11,2.43,1.11,3.32,0.01l6.65-7.28c0.89-1.1,0.89-2.43,0.01-3.32
					c-8.39-8.42-17.89-12.2-29.83-12.22c-23-0.04-39.62,17.17-39.66,41.05c-0.05,23.66,16.51,41.16,39.28,41.21
					c23.22,0.04,40.06-17.39,40.1-40.83l0.01-3.32C177.84,121.13,176.96,120.02,175.41,120.02"/>
				<path class="st5" d="M38.75,139.66l-7.09,7.73c-0.89,0.88-0.89,2.21-0.01,3.1c9.27,11.07,19.43,15.96,32.7,15.98
					c17.69,0.03,29.87-9.23,29.9-23.16c0.02-11.72-6.16-18.81-18.97-22.37l-14.15-4.01c-8.84-2.45-12.37-5.55-12.36-9.97
					c0.01-5.53,5.77-9.28,14.83-9.26c6.63,0.01,12.16,2.9,17.23,8.44c0.88,1.33,2.43,1.33,3.32,0.01l6.87-7.06
					c0.89-1.1,0.89-2.43,0.01-3.32C84.4,88.23,74.9,84.23,63.62,84.2c-17.03-0.03-29.21,9.45-29.23,22.94
					c-0.02,10.17,7.48,18.59,20.08,22.15l13.26,3.78c8.4,2.45,11.71,5.33,11.7,10.19c-0.01,5.53-5.32,9.06-14.17,9.04
					c-9.73-0.02-17.24-4.23-23.2-12.43C41.18,138.78,39.64,138.56,38.75,139.66"/>
			</g>
		</g>
	</g>
	<g>
		<g>
			<path class="st5" d="M268.68,163.32c-2.44-1.11-4.73-2.44-6.87-3.99c-2.07-1.55-3.95-3.32-5.65-5.32
				c-1.77-1.92-3.32-3.99-4.65-6.2c-1.4-2.14-2.59-4.43-3.55-6.87c-1.03-2.51-1.77-5.06-2.22-7.64c-0.44-2.58-0.67-5.21-0.67-7.87
				c0-2.58,0.22-5.13,0.67-7.64c0.44-2.51,1.11-4.99,1.99-7.42c0.96-2.44,2.1-4.73,3.43-6.87c1.33-2.07,2.84-4.06,4.54-5.98
				c1.7-1.84,3.58-3.51,5.65-4.98c1.99-1.55,4.21-2.88,6.65-3.99c2.36-1.18,4.87-2.03,7.53-2.55c2.73-0.59,5.58-0.89,8.53-0.89
				c3.47,0,6.72,0.37,9.75,1.11c2.95,0.74,5.76,1.88,8.42,3.43c2.58,1.48,4.91,3.25,6.98,5.32c2.14,2.07,3.95,4.43,5.43,7.09
				c-2.73,2.21-6.83,5.5-12.3,9.86c-0.3-0.59-0.66-1.22-1.11-1.88c-0.44-0.67-0.92-1.37-1.44-2.11c-0.52-0.74-1.11-1.48-1.77-2.22
				c-0.67-0.66-1.4-1.33-2.22-1.99c-0.74-0.66-1.59-1.29-2.55-1.88c-0.89-0.52-1.85-1-2.88-1.44c-1.04-0.44-2.14-0.78-3.32-1
				c-1.26-0.22-2.55-0.33-3.88-0.33c-1.85,0-3.54,0.18-5.1,0.55c-1.62,0.37-3.1,0.92-4.43,1.66c-1.4,0.81-2.7,1.74-3.88,2.77
				c-1.18,1.04-2.25,2.18-3.21,3.43c-0.96,1.18-1.81,2.51-2.55,3.99c-0.74,1.48-1.37,2.99-1.88,4.54c-0.52,1.7-0.89,3.36-1.11,4.99
				c-0.22,1.63-0.33,3.25-0.33,4.88c0,1.62,0.11,3.25,0.33,4.87c0.22,1.55,0.55,3.18,1,4.88c0.44,1.55,1.03,3.07,1.77,4.54
				c0.74,1.4,1.55,2.73,2.44,3.99c0.89,1.33,1.92,2.51,3.1,3.54c1.18,1.04,2.51,1.99,3.99,2.88c1.4,0.74,2.92,1.33,4.54,1.77
				c1.55,0.37,3.29,0.55,5.21,0.55c1.25,0,2.51-0.11,3.77-0.33c1.18-0.22,2.36-0.52,3.55-0.89c1.18-0.44,2.29-0.96,3.32-1.55
				c1.03-0.59,2.03-1.25,2.99-1.99c0.89-0.74,1.7-1.51,2.44-2.33c0.74-0.89,1.44-1.77,2.1-2.66c0.59-0.89,1.11-1.85,1.55-2.88
				c0.37-0.96,0.7-1.96,1-2.99c-3.92,0-9.79,0-17.61,0c0-3.03,0-7.57,0-13.63c7.68,0,19.2,0,34.56,0c0,0.07,0,0.19,0,0.33
				c0,0.22,0,0.52,0,0.89c0,0.44,0,0.85,0,1.22c-0.07,0.44-0.11,0.89-0.11,1.33s0,0.85,0,1.22c0,0.44,0,0.85,0,1.22
				c0,0.44,0,0.78,0,1s0,0.37,0,0.44c-0.15,2.36-0.48,4.69-1,6.98c-0.44,2.22-1.11,4.4-1.99,6.54c-0.89,2.21-1.96,4.25-3.21,6.09
				c-1.18,1.92-2.59,3.69-4.21,5.32c-1.55,1.63-3.25,3.07-5.1,4.32c-1.92,1.26-3.95,2.4-6.09,3.43c-2.22,0.96-4.51,1.66-6.87,2.11
				c-2.44,0.44-4.95,0.66-7.53,0.66c-2.88,0-5.65-0.3-8.31-0.89C273.66,165.36,271.12,164.51,268.68,163.32z"/>
			<path class="st5" d="M330.68,166.21c0-13.44,0-40.29,0-80.54c5.91,0,17.76,0,35.56,0c3.69,0,7.13,0.78,10.3,2.33
				c3.1,1.55,5.8,3.62,8.09,6.2c2.29,2.51,4.06,5.36,5.32,8.53c1.33,3.25,1.99,6.5,1.99,9.75c0,5.17-1.33,9.9-3.99,14.18
				c-2.59,4.28-6.09,7.39-10.52,9.31c4.06,6.72,10.19,16.8,18.39,30.24c-2.95,0-8.83,0-17.61,0c-2.73-4.5-8.24-13.52-16.51-27.03
				c-2.51,0-7.64,0-15.4,0c0,4.51,0,13.52,0,27.03C343.71,166.21,338.51,166.21,330.68,166.21z M346.3,125.44c3.25,0,9.79,0,19.61,0
				c1.48,0,2.84-0.33,4.1-1c1.18-0.67,2.25-1.55,3.21-2.66c0.89-1.25,1.59-2.66,2.1-4.21c0.52-1.62,0.78-3.32,0.78-5.1
				c0-1.92-0.3-3.66-0.89-5.21c-0.59-1.62-1.4-2.99-2.44-4.1c-1.04-1.25-2.22-2.18-3.55-2.77c-1.26-0.67-2.59-1-3.99-1
				c-4.21,0-10.52,0-18.94,0C346.3,103.76,346.3,112.44,346.3,125.44z"/>
			<path class="st5" d="M460.25,152.47c0,2.29,0,6.87,0,13.74c-9.38,0-28.03,0-55.95,0c0-13.44,0-40.29,0-80.54
				c9.16,0,27.44,0,54.84,0c0,2.29,0,6.87,0,13.74c-6.5,0-19.57,0-39.22,0c0,3.25,0,9.71,0,19.39c5.69,0,16.99,0,33.9,0
				c0,2.14,0,6.39,0,12.74c-5.61,0-16.91,0-33.9,0c0,3.47,0,10.45,0,20.94C426.65,152.47,440.09,152.47,460.25,152.47z"/>
			<path class="st5" d="M527.59,152.47c0,2.29,0,6.87,0,13.74c-9.38,0-28.03,0-55.95,0c0-13.44,0-40.29,0-80.54
				c9.16,0,27.44,0,54.84,0c0,2.29,0,6.87,0,13.74c-6.5,0-19.57,0-39.22,0c0,3.25,0,9.71,0,19.39c5.69,0,16.99,0,33.9,0
				c0,2.14,0,6.39,0,12.74c-5.61,0-16.91,0-33.9,0c0,3.47,0,10.45,0,20.94C493.99,152.47,507.43,152.47,527.59,152.47z"/>
			<path class="st5" d="M554.6,114.58c0,8.64,0,25.85,0,51.62c-2.59,0-7.79,0-15.62,0c0-13.44,0-40.29,0-80.54
				c1.99,0,6.02,0,12.08,0c7.02,8.79,21.01,26.4,41.99,52.84c0-8.79,0-26.37,0-52.73c2.66,0,7.9,0,15.73,0c0,13.37,0,40.18,0,80.43
				c-2.14,0-6.39,0-12.74,0C589.1,157.64,575.28,140.43,554.6,114.58z"/>
			<path d="M648.56,166.21c0-13.44,0-40.29,0-80.54c5.69,0,17.06,0,34.12,0c3.69,0,7.13,0.78,10.3,2.33c3.1,1.55,5.8,3.62,8.09,6.2
				c2.29,2.51,4.06,5.36,5.32,8.53c1.25,3.25,1.88,6.5,1.88,9.75c0,3.4-0.59,6.69-1.77,9.86c-1.18,3.25-2.88,6.13-5.1,8.64
				c-2.22,2.44-4.88,4.43-7.98,5.98c-3.1,1.48-6.5,2.22-10.19,2.22c-4.21,0-10.56,0-19.05,0c0,4.51,0,13.52,0,27.03
				C661.6,166.21,656.39,166.21,648.56,166.21z M664.18,125.44c3.03,0,9.08,0,18.17,0c2.88,0,5.28-1.14,7.2-3.43
				c1.92-2.36,2.88-5.54,2.88-9.53c0-2.07-0.3-3.91-0.89-5.54c-0.59-1.62-1.4-2.99-2.44-4.1c-0.96-1.18-2.11-2.03-3.43-2.55
				c-1.33-0.59-2.66-0.89-3.99-0.89c-3.92,0-9.75,0-17.5,0C664.18,103.76,664.18,112.44,664.18,125.44z"/>
			<path d="M718.65,166.21c0-13.44,0-40.29,0-80.54c2.58,0,7.79,0,15.62,0c0,11.15,0,33.42,0,66.8c6.87,0,20.57,0,41.1,0
				c0,2.29,0,6.87,0,13.74C765.92,166.21,747.01,166.21,718.65,166.21z"/>
			<path d="M811.36,85.67c2.29,0,6.91,0,13.85,0c5.1,13.44,15.29,40.29,30.58,80.54c-2.66,0-8.01,0-16.06,0
				c-1.26-3.32-3.77-10.01-7.53-20.05c-4.65,0-14.03,0-28.14,0c-1.26,3.32-3.69,10.01-7.31,20.05c-2.73,0-8.12,0-16.17,0
				C785.66,152.76,795.93,125.92,811.36,85.67z M829.31,135.08c-1.85-5.24-5.54-15.77-11.08-31.57
				c-1.92,5.25-5.76,15.77-11.52,31.57C810.48,135.08,818.01,135.08,829.31,135.08z"/>
			<path d="M877.43,114.58c0,8.64,0,25.85,0,51.62c-2.59,0-7.79,0-15.62,0c0-13.44,0-40.29,0-80.54c1.99,0,6.02,0,12.08,0
				c7.02,8.79,21.01,26.4,41.99,52.84c0-8.79,0-26.37,0-52.73c2.66,0,7.9,0,15.73,0c0,13.37,0,40.18,0,80.43c-2.14,0-6.39,0-12.74,0
				C911.92,157.64,898.11,140.43,877.43,114.58z"/>
		</g>
	</g>
</g>
<g id="Grid" class="st0">
	<ellipse class="st6" cx="1979.79" cy="116.09" rx="75.39" ry="63.36"/>
	<ellipse class="st6" cx="2578.76" cy="112.56" rx="75.39" ry="63.36"/>
	<g class="st7">
		<path class="st5" d="M225.22,107.57c1.1,1.11,2.43,1.11,3.32,0.01l6.65-7.28c0.89-1.1,0.89-2.43,0.01-3.32
			c-8.39-8.42-17.89-12.2-29.83-12.22v14.16C213.62,98.98,219.32,101.64,225.22,107.57z"/>
		<path class="st5" d="M242.66,120.43l-37.15-0.07c-0.05,0-0.1,0.01-0.15,0.01v14.13c0.04,0,0.08,0.01,0.13,0.01l24.1,0.05
			c-3.09,11.6-11.81,18.2-24.23,18.3V167c23.02-0.15,39.68-17.51,39.72-40.82l0.01-3.32C245.09,121.54,244.21,120.43,242.66,120.43z
			"/>
	</g>
	<g class="st7">
		<path class="st5" d="M628.65,107.57c1.1,1.11,2.43,1.11,3.32,0.01l6.65-7.28c0.89-1.1,0.89-2.43,0.01-3.32
			c-8.39-8.42-17.89-12.2-29.83-12.22v14.16C617.06,98.98,622.75,101.64,628.65,107.57z"/>
		<path class="st5" d="M646.1,120.43l-37.15-0.07c-0.05,0-0.1,0.01-0.15,0.01v14.13c0.04,0,0.08,0.01,0.13,0.01l24.1,0.05
			c-3.09,11.6-11.81,18.2-24.23,18.3V167c23.02-0.15,39.68-17.51,39.72-40.82l0.01-3.32C648.53,121.54,647.64,120.43,646.1,120.43z"
			/>
	</g>
</g>
</svg>
